G75*
%MOIN*%
%OFA0B0*%
%FSLAX25Y25*%
%IPPOS*%
%LPD*%
%AMOC8*
5,1,8,0,0,1.08239X$1,22.5*
%
%ADD10C,0.06693*%
%ADD11C,0.13843*%
%ADD12C,0.08858*%
%ADD13C,0.01575*%
%ADD14C,0.05906*%
%ADD15C,0.03175*%
%ADD16C,0.01600*%
D10*
X0052772Y0050028D03*
X0060572Y0050028D03*
X0060572Y0059871D03*
X0052772Y0059871D03*
X0218283Y0046170D03*
X0228283Y0046170D03*
X0238283Y0046170D03*
X0248283Y0046170D03*
X0248283Y0036170D03*
X0238283Y0036170D03*
X0228283Y0036170D03*
X0218283Y0036170D03*
X0272654Y0033296D03*
X0272654Y0023296D03*
X0272654Y0043296D03*
D11*
X0042072Y0031250D03*
X0042072Y0078650D03*
D12*
X0056709Y0106524D03*
X0078362Y0106524D03*
X0078362Y0123060D03*
X0056709Y0123060D03*
X0056709Y0139595D03*
X0078362Y0139595D03*
X0078362Y0156131D03*
X0056709Y0156131D03*
X0056709Y0172666D03*
X0078362Y0172666D03*
X0121079Y0155343D03*
X0126984Y0123847D03*
X0115173Y0123847D03*
X0121079Y0096288D03*
X0126984Y0064792D03*
X0115173Y0064792D03*
X0176197Y0064792D03*
X0176197Y0096288D03*
X0176197Y0123847D03*
X0176197Y0155343D03*
X0449661Y0149280D03*
X0459661Y0159280D03*
X0449661Y0169280D03*
X0469661Y0169280D03*
X0469661Y0149280D03*
X0469661Y0196524D03*
X0459661Y0206524D03*
X0449661Y0196524D03*
X0449661Y0216524D03*
X0469661Y0216524D03*
D13*
X0456650Y0214162D02*
X0426138Y0183650D01*
X0421256Y0183650D01*
X0396453Y0158847D01*
X0396453Y0136879D01*
X0376098Y0116524D01*
X0376098Y0081741D01*
X0407220Y0087843D02*
X0431020Y0111643D01*
X0426138Y0135442D02*
X0399898Y0135442D01*
X0404937Y0147469D02*
X0400213Y0152194D01*
X0400213Y0157706D01*
X0403736Y0153532D02*
X0440567Y0153532D01*
X0449327Y0162292D01*
X0452378Y0162292D01*
X0459091Y0169005D01*
X0459091Y0206229D01*
X0459661Y0206524D01*
X0456650Y0214162D02*
X0456650Y0227587D01*
X0440173Y0244064D01*
X0422476Y0244064D01*
X0422260Y0236839D02*
X0412811Y0227391D01*
X0438953Y0240402D02*
X0315685Y0240402D01*
X0289976Y0202194D02*
X0287614Y0200737D01*
X0272969Y0186091D01*
X0236354Y0186091D01*
X0236039Y0185658D01*
X0210724Y0209280D02*
X0210724Y0237233D01*
X0104799Y0195245D02*
X0176197Y0123847D01*
X0176551Y0123237D01*
X0182654Y0117135D01*
X0182654Y0093946D01*
X0176551Y0087843D01*
X0176551Y0065265D01*
X0176197Y0064792D01*
X0190587Y0077469D02*
X0185094Y0082961D01*
X0185094Y0126898D01*
X0183874Y0128119D01*
X0176551Y0123847D02*
X0176197Y0123847D01*
X0135665Y0127509D02*
X0135665Y0085402D01*
X0115528Y0065265D01*
X0115173Y0064792D01*
X0095094Y0049831D02*
X0103756Y0041170D01*
X0213205Y0041170D01*
X0217929Y0045894D01*
X0218283Y0046170D01*
X0228283Y0046170D02*
X0228559Y0046288D01*
X0240370Y0058099D01*
X0265961Y0058099D01*
X0278953Y0071091D01*
X0286039Y0082509D02*
X0265173Y0061643D01*
X0219898Y0061643D01*
X0206512Y0048257D01*
X0200213Y0048257D01*
X0200213Y0052587D02*
X0220685Y0073060D01*
X0247063Y0073060D01*
X0262417Y0088414D01*
X0286039Y0088414D01*
X0298244Y0097469D02*
X0298598Y0098217D01*
X0299819Y0098217D01*
X0299819Y0098257D01*
X0317929Y0098257D02*
X0359268Y0139595D01*
X0365173Y0140776D02*
X0321472Y0097076D01*
X0321079Y0096682D01*
X0321079Y0060855D01*
X0275409Y0015186D01*
X0264780Y0015186D01*
X0266748Y0017942D02*
X0248638Y0036052D01*
X0248283Y0036170D01*
X0254937Y0038020D02*
X0259661Y0033296D01*
X0272654Y0033296D01*
X0296276Y0056918D01*
X0296276Y0072272D01*
X0294701Y0073847D01*
X0294701Y0116367D01*
X0294307Y0116761D01*
X0251000Y0160068D01*
X0241846Y0156800D02*
X0230862Y0145816D01*
X0247949Y0147036D02*
X0219878Y0118965D01*
X0219878Y0107371D01*
X0244287Y0123237D02*
X0198520Y0077469D01*
X0190587Y0077469D01*
X0190232Y0082706D02*
X0200094Y0082706D01*
X0252220Y0134831D01*
X0252220Y0146426D01*
X0272358Y0147036D02*
X0275409Y0150087D01*
X0284189Y0150087D01*
X0276630Y0146426D02*
X0294937Y0146426D01*
X0294937Y0151308D01*
X0289445Y0156800D01*
X0283953Y0156800D01*
X0294937Y0146426D02*
X0297988Y0146426D01*
X0301039Y0143375D01*
X0297378Y0142154D02*
X0301039Y0138493D01*
X0301039Y0137883D01*
X0322437Y0116485D01*
X0322437Y0108198D01*
X0337043Y0104930D02*
X0434681Y0202568D01*
X0434681Y0211721D01*
X0446886Y0223926D01*
X0434701Y0170855D02*
X0445055Y0165343D01*
X0445724Y0165343D01*
X0449661Y0169280D01*
X0449937Y0159241D02*
X0459091Y0159241D01*
X0459661Y0159280D01*
X0449937Y0159241D02*
X0426138Y0135442D01*
X0430921Y0147469D02*
X0404937Y0147469D01*
X0393185Y0156190D02*
X0344957Y0107961D01*
X0344957Y0062017D01*
X0341157Y0049438D02*
X0420291Y0049438D01*
X0420291Y0045894D01*
X0420291Y0049438D02*
X0420291Y0053375D01*
X0452181Y0085265D01*
X0452378Y0086013D01*
X0452378Y0145816D01*
X0449661Y0149280D01*
X0449937Y0148257D01*
X0452378Y0145816D01*
X0454819Y0148257D01*
X0469465Y0148257D01*
X0469661Y0149280D01*
X0347417Y0132391D02*
X0343874Y0128847D01*
X0334386Y0128847D01*
X0343756Y0134831D02*
X0343756Y0147036D01*
X0338874Y0151918D01*
X0337614Y0154556D01*
X0297378Y0142154D02*
X0277240Y0142154D01*
X0279681Y0138493D02*
X0288972Y0129202D01*
X0294937Y0129202D01*
X0269307Y0123237D02*
X0244287Y0123237D01*
X0251000Y0081741D02*
X0206453Y0081741D01*
X0169839Y0045127D01*
X0105016Y0044733D01*
X0095094Y0049831D02*
X0060843Y0049831D01*
X0060572Y0050028D01*
X0052772Y0050028D02*
X0052673Y0050619D01*
X0047181Y0056111D01*
X0047181Y0061603D01*
X0078303Y0092725D01*
X0078303Y0106150D01*
X0078362Y0106524D01*
X0105764Y0123847D02*
X0080134Y0149477D01*
X0073421Y0149477D01*
X0063047Y0159851D01*
X0063047Y0166564D01*
X0056945Y0172666D01*
X0056709Y0172666D01*
X0078362Y0172666D02*
X0090508Y0172666D01*
X0135665Y0127509D01*
X0133224Y0126288D02*
X0133224Y0107981D01*
X0121630Y0096387D01*
X0121079Y0096288D01*
X0115173Y0123847D02*
X0105764Y0123847D01*
X0133224Y0126288D02*
X0103933Y0155580D01*
X0078913Y0155580D01*
X0078362Y0156131D01*
X0078146Y0195245D02*
X0102614Y0195245D01*
X0104799Y0195245D01*
X0224917Y0070304D02*
X0210803Y0056190D01*
X0209583Y0056190D01*
X0238283Y0046170D02*
X0247457Y0055343D01*
X0266748Y0055343D01*
X0268717Y0057312D01*
X0285252Y0057312D01*
X0262417Y0048257D02*
X0254937Y0040776D01*
X0254937Y0038020D01*
X0250606Y0041170D02*
X0243126Y0041170D01*
X0238402Y0036446D01*
X0238283Y0036170D01*
X0228559Y0036052D02*
X0228283Y0036170D01*
X0228559Y0036052D02*
X0252969Y0011643D01*
X0275409Y0011643D01*
X0274622Y0017942D02*
X0266748Y0017942D01*
X0274622Y0017942D02*
X0299031Y0042351D01*
X0261236Y0051800D02*
X0250606Y0041170D01*
X0325016Y0077784D02*
X0339189Y0077784D01*
D14*
X0337614Y0154556D02*
X0289976Y0202194D01*
X0289976Y0219517D01*
X0297457Y0237233D02*
X0332102Y0202587D01*
X0332102Y0171879D01*
X0337614Y0154556D02*
X0397457Y0214398D01*
X0418717Y0214398D01*
X0297457Y0237233D02*
X0210724Y0237233D01*
X0026984Y0237233D01*
X0019504Y0229753D01*
X0019504Y0162430D01*
X0036433Y0145107D01*
X0074228Y0219910D02*
X0072654Y0221485D01*
X0067929Y0226209D01*
X0028559Y0226209D01*
X0074228Y0219910D02*
X0186039Y0219910D01*
D15*
X0186039Y0219910D03*
X0210724Y0209280D03*
X0236039Y0185658D03*
X0251000Y0160068D03*
X0241846Y0156800D03*
X0247949Y0147036D03*
X0252220Y0146426D03*
X0272358Y0147036D03*
X0276630Y0146426D03*
X0277240Y0142154D03*
X0279681Y0138493D03*
X0294937Y0129202D03*
X0301039Y0138493D03*
X0301039Y0143375D03*
X0284189Y0150087D03*
X0283953Y0156800D03*
X0332102Y0171879D03*
X0337614Y0154556D03*
X0359268Y0139595D03*
X0365173Y0140776D03*
X0347417Y0132391D03*
X0343756Y0134831D03*
X0334386Y0128847D03*
X0322437Y0108198D03*
X0337043Y0104930D03*
X0321472Y0097076D03*
X0298244Y0097469D03*
X0287614Y0099438D03*
X0286039Y0088414D03*
X0286039Y0082509D03*
X0290764Y0081721D03*
X0291551Y0072666D03*
X0271571Y0072942D03*
X0251000Y0081741D03*
X0219878Y0107371D03*
X0183874Y0128119D03*
X0230862Y0145816D03*
X0269307Y0123237D03*
X0294307Y0116761D03*
X0325016Y0077784D03*
X0339189Y0077784D03*
X0344957Y0062017D03*
X0326197Y0063217D03*
X0341157Y0049438D03*
X0341157Y0044713D03*
X0308874Y0043532D03*
X0285252Y0057312D03*
X0281315Y0053769D03*
X0266748Y0048650D03*
X0262417Y0048257D03*
X0258480Y0039202D03*
X0264780Y0015186D03*
X0200213Y0048257D03*
X0200213Y0052587D03*
X0209583Y0056190D03*
X0190232Y0082706D03*
X0105016Y0044733D03*
X0036433Y0145107D03*
X0078146Y0195245D03*
X0102614Y0195245D03*
X0072654Y0221485D03*
X0028559Y0226209D03*
X0289976Y0219517D03*
X0315685Y0240402D03*
X0412811Y0227391D03*
X0422260Y0236839D03*
X0422476Y0244064D03*
X0438953Y0240402D03*
X0446886Y0223926D03*
X0434681Y0211721D03*
X0418717Y0214398D03*
X0434701Y0170855D03*
X0403736Y0153532D03*
X0400213Y0157706D03*
X0393185Y0156190D03*
X0399898Y0135442D03*
X0430921Y0147469D03*
X0431020Y0111643D03*
X0407220Y0087843D03*
X0376098Y0081741D03*
X0420291Y0045894D03*
X0384858Y0017548D03*
X0452378Y0086013D03*
D16*
X0027233Y0007076D02*
X0026693Y0006537D01*
X0459559Y0006537D01*
X0459019Y0007076D01*
X0457618Y0009503D01*
X0456893Y0012210D01*
X0456893Y0015012D01*
X0457618Y0017719D01*
X0459019Y0020146D01*
X0461001Y0022127D01*
X0463428Y0023528D01*
X0466134Y0024254D01*
X0468937Y0024254D01*
X0471643Y0023528D01*
X0474070Y0022127D01*
X0474609Y0021588D01*
X0474609Y0145493D01*
X0474413Y0145222D01*
X0473719Y0144529D01*
X0472926Y0143953D01*
X0472053Y0143508D01*
X0471120Y0143205D01*
X0470338Y0143081D01*
X0470338Y0148604D01*
X0468985Y0148604D01*
X0463462Y0148604D01*
X0463586Y0147822D01*
X0463889Y0146889D01*
X0464334Y0146016D01*
X0464910Y0145222D01*
X0465603Y0144529D01*
X0466397Y0143953D01*
X0467270Y0143508D01*
X0468203Y0143205D01*
X0468985Y0143081D01*
X0468985Y0148604D01*
X0468985Y0149957D01*
X0468985Y0155480D01*
X0468203Y0155356D01*
X0467270Y0155053D01*
X0466397Y0154608D01*
X0465603Y0154032D01*
X0464910Y0153338D01*
X0464334Y0152545D01*
X0463889Y0151671D01*
X0463586Y0150739D01*
X0463462Y0149957D01*
X0468985Y0149957D01*
X0470338Y0149957D01*
X0470338Y0155480D01*
X0471120Y0155356D01*
X0472053Y0155053D01*
X0472926Y0154608D01*
X0473719Y0154032D01*
X0474413Y0153338D01*
X0474609Y0153068D01*
X0474609Y0165493D01*
X0474413Y0165222D01*
X0473719Y0164529D01*
X0472926Y0163953D01*
X0472053Y0163508D01*
X0471120Y0163205D01*
X0470338Y0163081D01*
X0470338Y0168604D01*
X0468985Y0168604D01*
X0463462Y0168604D01*
X0463586Y0167822D01*
X0463889Y0166889D01*
X0464334Y0166016D01*
X0464910Y0165222D01*
X0465603Y0164529D01*
X0466397Y0163953D01*
X0467270Y0163508D01*
X0468203Y0163205D01*
X0468985Y0163081D01*
X0468985Y0168604D01*
X0468985Y0169957D01*
X0468985Y0175480D01*
X0468203Y0175356D01*
X0467270Y0175053D01*
X0466397Y0174608D01*
X0465603Y0174032D01*
X0464910Y0173338D01*
X0464334Y0172545D01*
X0463889Y0171671D01*
X0463586Y0170739D01*
X0463462Y0169957D01*
X0468985Y0169957D01*
X0470338Y0169957D01*
X0470338Y0175480D01*
X0471120Y0175356D01*
X0472053Y0175053D01*
X0472926Y0174608D01*
X0473719Y0174032D01*
X0474413Y0173338D01*
X0474609Y0173068D01*
X0474609Y0192737D01*
X0474413Y0192466D01*
X0473719Y0191773D01*
X0472926Y0191197D01*
X0472053Y0190752D01*
X0471120Y0190449D01*
X0470338Y0190325D01*
X0470338Y0195848D01*
X0468985Y0195848D01*
X0468985Y0190325D01*
X0468203Y0190449D01*
X0467270Y0190752D01*
X0466397Y0191197D01*
X0465603Y0191773D01*
X0464910Y0192466D01*
X0464334Y0193260D01*
X0463889Y0194133D01*
X0463586Y0195066D01*
X0463462Y0195848D01*
X0468985Y0195848D01*
X0468985Y0197201D01*
X0468985Y0202724D01*
X0468203Y0202600D01*
X0467270Y0202297D01*
X0466397Y0201852D01*
X0465603Y0201276D01*
X0464910Y0200582D01*
X0464334Y0199789D01*
X0463889Y0198916D01*
X0463586Y0197983D01*
X0463462Y0197201D01*
X0468985Y0197201D01*
X0470338Y0197201D01*
X0470338Y0202724D01*
X0471120Y0202600D01*
X0472053Y0202297D01*
X0472926Y0201852D01*
X0473719Y0201276D01*
X0474413Y0200582D01*
X0474609Y0200312D01*
X0474609Y0212737D01*
X0474413Y0212466D01*
X0473719Y0211773D01*
X0472926Y0211197D01*
X0472053Y0210752D01*
X0471120Y0210449D01*
X0470338Y0210325D01*
X0470338Y0215848D01*
X0468985Y0215848D01*
X0468985Y0210325D01*
X0468203Y0210449D01*
X0467270Y0210752D01*
X0466397Y0211197D01*
X0465603Y0211773D01*
X0464910Y0212466D01*
X0464334Y0213260D01*
X0463889Y0214133D01*
X0463586Y0215066D01*
X0463462Y0215848D01*
X0468985Y0215848D01*
X0468985Y0217201D01*
X0468985Y0222724D01*
X0468203Y0222600D01*
X0467270Y0222297D01*
X0466397Y0221852D01*
X0465603Y0221276D01*
X0464910Y0220582D01*
X0464334Y0219789D01*
X0463889Y0218916D01*
X0463586Y0217983D01*
X0463462Y0217201D01*
X0468985Y0217201D01*
X0470338Y0217201D01*
X0470338Y0222724D01*
X0471120Y0222600D01*
X0472053Y0222297D01*
X0472926Y0221852D01*
X0473719Y0221276D01*
X0474413Y0220582D01*
X0474609Y0220312D01*
X0474609Y0257603D01*
X0474070Y0257063D01*
X0471643Y0255662D01*
X0468937Y0254937D01*
X0466134Y0254937D01*
X0463428Y0255662D01*
X0461001Y0257063D01*
X0459019Y0259045D01*
X0457618Y0261472D01*
X0456893Y0264178D01*
X0456893Y0266981D01*
X0457618Y0269687D01*
X0459019Y0272114D01*
X0459559Y0272654D01*
X0026693Y0272654D01*
X0027233Y0272114D01*
X0028634Y0269687D01*
X0029359Y0266981D01*
X0029359Y0264178D01*
X0028634Y0261472D01*
X0027233Y0259045D01*
X0025251Y0257063D01*
X0022824Y0255662D01*
X0020118Y0254937D01*
X0017315Y0254937D01*
X0014609Y0255662D01*
X0012182Y0257063D01*
X0011643Y0257603D01*
X0011643Y0021588D01*
X0012182Y0022127D01*
X0014609Y0023528D01*
X0017315Y0024254D01*
X0020118Y0024254D01*
X0022824Y0023528D01*
X0025251Y0022127D01*
X0027233Y0020146D01*
X0028634Y0017719D01*
X0029359Y0015012D01*
X0029359Y0012210D01*
X0028634Y0009503D01*
X0027233Y0007076D01*
X0026752Y0006596D02*
X0459500Y0006596D01*
X0458374Y0008194D02*
X0027878Y0008194D01*
X0028711Y0009793D02*
X0251349Y0009793D01*
X0251579Y0009563D02*
X0252480Y0009189D01*
X0274888Y0009189D01*
X0274919Y0009176D01*
X0277475Y0009176D01*
X0278381Y0009552D01*
X0308874Y0040045D01*
X0332768Y0016151D01*
X0333461Y0015457D01*
X0334368Y0015082D01*
X0382723Y0015082D01*
X0383015Y0014790D01*
X0384211Y0014294D01*
X0385505Y0014294D01*
X0386701Y0014790D01*
X0387616Y0015705D01*
X0388112Y0016901D01*
X0388112Y0018195D01*
X0387616Y0019391D01*
X0386701Y0020306D01*
X0385505Y0020802D01*
X0384211Y0020802D01*
X0383015Y0020306D01*
X0382723Y0020014D01*
X0335880Y0020014D01*
X0312128Y0043766D01*
X0312128Y0044179D01*
X0311632Y0045375D01*
X0310717Y0046290D01*
X0310199Y0046505D01*
X0322469Y0058775D01*
X0323159Y0059465D01*
X0323532Y0060367D01*
X0323532Y0061281D01*
X0323731Y0061082D01*
X0323731Y0059183D01*
X0324106Y0058277D01*
X0337904Y0044479D01*
X0337904Y0044066D01*
X0338399Y0042870D01*
X0339314Y0041955D01*
X0340510Y0041460D01*
X0341805Y0041460D01*
X0343000Y0041955D01*
X0343916Y0042870D01*
X0344411Y0044066D01*
X0344411Y0045361D01*
X0343916Y0046556D01*
X0343000Y0047472D01*
X0341805Y0047967D01*
X0341392Y0047967D01*
X0328663Y0060696D01*
X0328663Y0061082D01*
X0328955Y0061374D01*
X0329450Y0062570D01*
X0329450Y0063864D01*
X0328955Y0065060D01*
X0328040Y0065976D01*
X0326844Y0066471D01*
X0325550Y0066471D01*
X0324354Y0065976D01*
X0323532Y0065154D01*
X0323532Y0074877D01*
X0324369Y0074531D01*
X0325663Y0074531D01*
X0326859Y0075026D01*
X0327163Y0075331D01*
X0337041Y0075331D01*
X0337346Y0075026D01*
X0338542Y0074531D01*
X0339836Y0074531D01*
X0341032Y0075026D01*
X0341947Y0075941D01*
X0342443Y0077137D01*
X0342443Y0078431D01*
X0341947Y0079627D01*
X0341032Y0080542D01*
X0339836Y0081038D01*
X0338542Y0081038D01*
X0337346Y0080542D01*
X0337041Y0080238D01*
X0327163Y0080238D01*
X0326859Y0080542D01*
X0325663Y0081038D01*
X0324369Y0081038D01*
X0323532Y0080691D01*
X0323532Y0094534D01*
X0324231Y0095233D01*
X0324726Y0096428D01*
X0324726Y0096859D01*
X0334034Y0106168D01*
X0333790Y0105577D01*
X0333790Y0104283D01*
X0334285Y0103087D01*
X0335200Y0102172D01*
X0336396Y0101676D01*
X0337690Y0101676D01*
X0338886Y0102172D01*
X0339802Y0103087D01*
X0340297Y0104283D01*
X0340297Y0104714D01*
X0342503Y0106920D01*
X0342503Y0064164D01*
X0342198Y0063860D01*
X0341703Y0062664D01*
X0341703Y0061369D01*
X0342198Y0060174D01*
X0343114Y0059258D01*
X0344310Y0058763D01*
X0345604Y0058763D01*
X0346800Y0059258D01*
X0347715Y0060174D01*
X0348210Y0061369D01*
X0348210Y0062664D01*
X0347715Y0063860D01*
X0347410Y0064164D01*
X0347410Y0106945D01*
X0393401Y0152936D01*
X0393832Y0152936D01*
X0393999Y0153005D01*
X0393999Y0137895D01*
X0374709Y0118604D01*
X0374018Y0117914D01*
X0373645Y0117012D01*
X0373645Y0083889D01*
X0373340Y0083584D01*
X0372845Y0082388D01*
X0372845Y0081094D01*
X0373340Y0079898D01*
X0374255Y0078983D01*
X0375451Y0078487D01*
X0376746Y0078487D01*
X0377941Y0078983D01*
X0378857Y0079898D01*
X0379352Y0081094D01*
X0379352Y0082388D01*
X0378857Y0083584D01*
X0378552Y0083889D01*
X0378552Y0115508D01*
X0396994Y0133950D01*
X0397139Y0133599D01*
X0398055Y0132684D01*
X0399250Y0132188D01*
X0400545Y0132188D01*
X0401741Y0132684D01*
X0402045Y0132988D01*
X0426626Y0132988D01*
X0427528Y0133362D01*
X0444123Y0149957D01*
X0448985Y0149957D01*
X0448985Y0154819D01*
X0450953Y0156787D01*
X0454097Y0156787D01*
X0454494Y0155828D01*
X0456209Y0154113D01*
X0458449Y0153185D01*
X0460874Y0153185D01*
X0463114Y0154113D01*
X0464829Y0155828D01*
X0465757Y0158068D01*
X0465757Y0160493D01*
X0464829Y0162733D01*
X0463114Y0164448D01*
X0460874Y0165376D01*
X0458931Y0165376D01*
X0460480Y0166925D01*
X0461171Y0167615D01*
X0461544Y0168517D01*
X0461544Y0200707D01*
X0463114Y0201357D01*
X0464829Y0203072D01*
X0465757Y0205312D01*
X0465757Y0207737D01*
X0464829Y0209977D01*
X0463114Y0211692D01*
X0460874Y0212620D01*
X0458577Y0212620D01*
X0458730Y0212772D01*
X0459103Y0213674D01*
X0459103Y0228075D01*
X0458730Y0228977D01*
X0458039Y0229667D01*
X0441563Y0246144D01*
X0440661Y0246517D01*
X0424624Y0246517D01*
X0424319Y0246822D01*
X0423124Y0247317D01*
X0421829Y0247317D01*
X0420633Y0246822D01*
X0419718Y0245907D01*
X0419223Y0244711D01*
X0419223Y0243417D01*
X0419455Y0242856D01*
X0317833Y0242856D01*
X0317528Y0243161D01*
X0316332Y0243656D01*
X0315038Y0243656D01*
X0313842Y0243161D01*
X0312927Y0242245D01*
X0312431Y0241050D01*
X0312431Y0239755D01*
X0312927Y0238559D01*
X0313842Y0237644D01*
X0315038Y0237149D01*
X0316332Y0237149D01*
X0317528Y0237644D01*
X0317833Y0237949D01*
X0419198Y0237949D01*
X0419006Y0237487D01*
X0419006Y0237056D01*
X0412595Y0230644D01*
X0412164Y0230644D01*
X0410968Y0230149D01*
X0410053Y0229234D01*
X0409557Y0228038D01*
X0409557Y0226743D01*
X0410053Y0225548D01*
X0410968Y0224632D01*
X0412164Y0224137D01*
X0413458Y0224137D01*
X0414654Y0224632D01*
X0415569Y0225548D01*
X0416065Y0226743D01*
X0416065Y0227174D01*
X0422476Y0233586D01*
X0422907Y0233586D01*
X0424103Y0234081D01*
X0425018Y0234996D01*
X0425513Y0236192D01*
X0425513Y0237487D01*
X0425322Y0237949D01*
X0436805Y0237949D01*
X0437110Y0237644D01*
X0438306Y0237149D01*
X0439600Y0237149D01*
X0440796Y0237644D01*
X0441711Y0238559D01*
X0441856Y0238911D01*
X0454196Y0226571D01*
X0454196Y0220799D01*
X0453719Y0221276D01*
X0452926Y0221852D01*
X0452053Y0222297D01*
X0451120Y0222600D01*
X0450338Y0222724D01*
X0450338Y0217201D01*
X0448985Y0217201D01*
X0448985Y0221424D01*
X0449644Y0222083D01*
X0450139Y0223279D01*
X0450139Y0224573D01*
X0449644Y0225769D01*
X0448729Y0226684D01*
X0447533Y0227180D01*
X0446239Y0227180D01*
X0445043Y0226684D01*
X0444128Y0225769D01*
X0443632Y0224573D01*
X0443632Y0224142D01*
X0434465Y0214975D01*
X0434034Y0214975D01*
X0432838Y0214479D01*
X0431923Y0213564D01*
X0431428Y0212368D01*
X0431428Y0211074D01*
X0431923Y0209878D01*
X0432228Y0209574D01*
X0432228Y0203584D01*
X0368182Y0139539D01*
X0368427Y0140129D01*
X0368427Y0141424D01*
X0367931Y0142619D01*
X0367016Y0143535D01*
X0365820Y0144030D01*
X0364526Y0144030D01*
X0363330Y0143535D01*
X0362415Y0142619D01*
X0361955Y0141509D01*
X0361111Y0142353D01*
X0359915Y0142849D01*
X0358621Y0142849D01*
X0357425Y0142353D01*
X0356509Y0141438D01*
X0356014Y0140242D01*
X0356014Y0139812D01*
X0350252Y0134049D01*
X0350176Y0134234D01*
X0349260Y0135149D01*
X0348064Y0135644D01*
X0346941Y0135644D01*
X0346514Y0136674D01*
X0346209Y0136979D01*
X0346209Y0147524D01*
X0345836Y0148426D01*
X0341926Y0152336D01*
X0399370Y0209780D01*
X0419635Y0209780D01*
X0421333Y0210483D01*
X0422632Y0211782D01*
X0423335Y0213480D01*
X0423335Y0215317D01*
X0422632Y0217015D01*
X0421333Y0218314D01*
X0419635Y0219017D01*
X0396538Y0219017D01*
X0394840Y0218314D01*
X0337614Y0161088D01*
X0294595Y0204107D01*
X0294595Y0220435D01*
X0293892Y0222133D01*
X0292593Y0223432D01*
X0290895Y0224135D01*
X0289058Y0224135D01*
X0287360Y0223432D01*
X0286061Y0222133D01*
X0285357Y0220435D01*
X0285357Y0201950D01*
X0271952Y0188545D01*
X0237572Y0188545D01*
X0236687Y0188912D01*
X0235392Y0188912D01*
X0234196Y0188416D01*
X0233281Y0187501D01*
X0232786Y0186305D01*
X0232786Y0185011D01*
X0233281Y0183815D01*
X0234196Y0182900D01*
X0235392Y0182405D01*
X0236687Y0182405D01*
X0237882Y0182900D01*
X0238620Y0183638D01*
X0273457Y0183638D01*
X0274358Y0184011D01*
X0287992Y0197645D01*
X0334998Y0150640D01*
X0336695Y0149937D01*
X0337385Y0149937D01*
X0341302Y0146020D01*
X0341302Y0136979D01*
X0340998Y0136674D01*
X0340502Y0135479D01*
X0340502Y0134184D01*
X0340998Y0132989D01*
X0341913Y0132073D01*
X0343109Y0131578D01*
X0343135Y0131578D01*
X0342858Y0131301D01*
X0336533Y0131301D01*
X0336229Y0131605D01*
X0335033Y0132101D01*
X0333739Y0132101D01*
X0332543Y0131605D01*
X0331628Y0130690D01*
X0331132Y0129494D01*
X0331132Y0128200D01*
X0331628Y0127004D01*
X0332543Y0126089D01*
X0333739Y0125594D01*
X0335033Y0125594D01*
X0336229Y0126089D01*
X0336533Y0126394D01*
X0342596Y0126394D01*
X0325502Y0109300D01*
X0325195Y0110041D01*
X0324891Y0110345D01*
X0324891Y0116973D01*
X0324517Y0117875D01*
X0304293Y0138099D01*
X0304293Y0139140D01*
X0303798Y0140336D01*
X0303200Y0140934D01*
X0303798Y0141532D01*
X0304293Y0142728D01*
X0304293Y0144022D01*
X0303798Y0145218D01*
X0302882Y0146133D01*
X0301687Y0146628D01*
X0301256Y0146628D01*
X0299378Y0148506D01*
X0298476Y0148880D01*
X0297391Y0148880D01*
X0297391Y0151796D01*
X0297017Y0152698D01*
X0296327Y0153388D01*
X0290835Y0158880D01*
X0289933Y0159254D01*
X0286100Y0159254D01*
X0285796Y0159558D01*
X0284600Y0160054D01*
X0283306Y0160054D01*
X0282110Y0159558D01*
X0281195Y0158643D01*
X0280699Y0157447D01*
X0280699Y0156153D01*
X0281195Y0154957D01*
X0282110Y0154042D01*
X0283306Y0153546D01*
X0284600Y0153546D01*
X0285796Y0154042D01*
X0286100Y0154346D01*
X0288429Y0154346D01*
X0292483Y0150292D01*
X0292483Y0148880D01*
X0287210Y0148880D01*
X0287443Y0149440D01*
X0287443Y0150735D01*
X0286947Y0151930D01*
X0286032Y0152846D01*
X0284836Y0153341D01*
X0283542Y0153341D01*
X0282346Y0152846D01*
X0282041Y0152541D01*
X0274921Y0152541D01*
X0274020Y0152167D01*
X0273329Y0151477D01*
X0272142Y0150290D01*
X0271711Y0150290D01*
X0270515Y0149794D01*
X0269600Y0148879D01*
X0269105Y0147683D01*
X0269105Y0146389D01*
X0269600Y0145193D01*
X0270515Y0144278D01*
X0271711Y0143783D01*
X0273005Y0143783D01*
X0274184Y0144271D01*
X0274475Y0143980D01*
X0273987Y0142802D01*
X0273987Y0141507D01*
X0274482Y0140311D01*
X0275397Y0139396D01*
X0276428Y0138969D01*
X0276428Y0138110D01*
X0254254Y0160284D01*
X0254254Y0160715D01*
X0253758Y0161911D01*
X0252843Y0162826D01*
X0251647Y0163321D01*
X0250353Y0163321D01*
X0249157Y0162826D01*
X0248242Y0161911D01*
X0247746Y0160715D01*
X0247746Y0159421D01*
X0248242Y0158225D01*
X0249157Y0157309D01*
X0250353Y0156814D01*
X0250784Y0156814D01*
X0291054Y0116544D01*
X0291054Y0116113D01*
X0291549Y0114918D01*
X0292247Y0114219D01*
X0292247Y0075899D01*
X0292198Y0075920D01*
X0290904Y0075920D01*
X0289708Y0075424D01*
X0288793Y0074509D01*
X0288399Y0073557D01*
X0280558Y0073557D01*
X0286256Y0079255D01*
X0286687Y0079255D01*
X0287882Y0079750D01*
X0288798Y0080666D01*
X0289293Y0081861D01*
X0289293Y0083156D01*
X0288798Y0084352D01*
X0287882Y0085267D01*
X0287413Y0085461D01*
X0287882Y0085656D01*
X0288798Y0086571D01*
X0289293Y0087767D01*
X0289293Y0089061D01*
X0288798Y0090257D01*
X0287882Y0091172D01*
X0286687Y0091668D01*
X0285392Y0091668D01*
X0284196Y0091172D01*
X0283892Y0090868D01*
X0261929Y0090868D01*
X0261027Y0090494D01*
X0253863Y0083330D01*
X0253758Y0083584D01*
X0252843Y0084499D01*
X0251647Y0084994D01*
X0250353Y0084994D01*
X0249157Y0084499D01*
X0248852Y0084194D01*
X0208715Y0084194D01*
X0245304Y0120783D01*
X0267159Y0120783D01*
X0267464Y0120479D01*
X0268660Y0119983D01*
X0269954Y0119983D01*
X0271150Y0120479D01*
X0272065Y0121394D01*
X0272561Y0122590D01*
X0272561Y0123884D01*
X0272065Y0125080D01*
X0271150Y0125995D01*
X0269954Y0126491D01*
X0268660Y0126491D01*
X0267464Y0125995D01*
X0267159Y0125691D01*
X0246549Y0125691D01*
X0254300Y0133442D01*
X0254674Y0134343D01*
X0254674Y0144278D01*
X0254979Y0144583D01*
X0255474Y0145779D01*
X0255474Y0147073D01*
X0254979Y0148269D01*
X0254063Y0149184D01*
X0252868Y0149680D01*
X0251573Y0149680D01*
X0250395Y0149191D01*
X0249792Y0149794D01*
X0248596Y0150290D01*
X0247302Y0150290D01*
X0246106Y0149794D01*
X0245191Y0148879D01*
X0244695Y0147683D01*
X0244695Y0147252D01*
X0217798Y0120355D01*
X0217424Y0119453D01*
X0217424Y0109519D01*
X0217120Y0109214D01*
X0216624Y0108018D01*
X0216624Y0106724D01*
X0217120Y0105528D01*
X0218035Y0104613D01*
X0218386Y0104467D01*
X0199078Y0085159D01*
X0192380Y0085159D01*
X0192075Y0085464D01*
X0190879Y0085959D01*
X0189585Y0085959D01*
X0188389Y0085464D01*
X0187548Y0084622D01*
X0187548Y0127386D01*
X0187174Y0128288D01*
X0187128Y0128335D01*
X0187128Y0128766D01*
X0186632Y0129962D01*
X0185717Y0130877D01*
X0184521Y0131372D01*
X0183227Y0131372D01*
X0182031Y0130877D01*
X0181116Y0129962D01*
X0180620Y0128766D01*
X0180620Y0128044D01*
X0179650Y0129015D01*
X0177409Y0129943D01*
X0174984Y0129943D01*
X0173985Y0129529D01*
X0106189Y0197325D01*
X0105287Y0197698D01*
X0104762Y0197698D01*
X0104457Y0198003D01*
X0103261Y0198498D01*
X0101967Y0198498D01*
X0100771Y0198003D01*
X0100467Y0197698D01*
X0080293Y0197698D01*
X0079989Y0198003D01*
X0078793Y0198498D01*
X0077498Y0198498D01*
X0076303Y0198003D01*
X0075387Y0197088D01*
X0074892Y0195892D01*
X0074892Y0194598D01*
X0075387Y0193402D01*
X0076303Y0192487D01*
X0077498Y0191991D01*
X0078793Y0191991D01*
X0079989Y0192487D01*
X0080293Y0192791D01*
X0100467Y0192791D01*
X0100771Y0192487D01*
X0101967Y0191991D01*
X0103261Y0191991D01*
X0104196Y0192378D01*
X0170515Y0126059D01*
X0170102Y0125060D01*
X0170102Y0122635D01*
X0171030Y0120395D01*
X0172744Y0118680D01*
X0174984Y0117752D01*
X0177409Y0117752D01*
X0178227Y0118091D01*
X0180200Y0116118D01*
X0180200Y0100905D01*
X0179650Y0101455D01*
X0177409Y0102383D01*
X0174984Y0102383D01*
X0172744Y0101455D01*
X0171030Y0099741D01*
X0170102Y0097501D01*
X0170102Y0095076D01*
X0171030Y0092835D01*
X0172744Y0091121D01*
X0174984Y0090193D01*
X0175431Y0090193D01*
X0174471Y0089233D01*
X0174098Y0088331D01*
X0174098Y0070520D01*
X0172744Y0069959D01*
X0171030Y0068245D01*
X0170102Y0066005D01*
X0170102Y0063580D01*
X0171030Y0061339D01*
X0172744Y0059625D01*
X0174984Y0058697D01*
X0177409Y0058697D01*
X0179650Y0059625D01*
X0181364Y0061339D01*
X0182292Y0063580D01*
X0182292Y0066005D01*
X0181364Y0068245D01*
X0179650Y0069959D01*
X0179005Y0070227D01*
X0179005Y0086827D01*
X0182641Y0090463D01*
X0182641Y0082473D01*
X0183014Y0081572D01*
X0183705Y0080881D01*
X0188507Y0076079D01*
X0189197Y0075389D01*
X0190099Y0075016D01*
X0196258Y0075016D01*
X0168816Y0047574D01*
X0107150Y0047200D01*
X0106859Y0047491D01*
X0105663Y0047987D01*
X0104369Y0047987D01*
X0103173Y0047491D01*
X0102258Y0046576D01*
X0102129Y0046266D01*
X0096484Y0051912D01*
X0095583Y0052285D01*
X0065062Y0052285D01*
X0064821Y0052868D01*
X0063411Y0054278D01*
X0061789Y0054950D01*
X0063411Y0055621D01*
X0064821Y0057031D01*
X0065584Y0058874D01*
X0065584Y0060868D01*
X0064821Y0062710D01*
X0063411Y0064120D01*
X0061569Y0064883D01*
X0059575Y0064883D01*
X0057732Y0064120D01*
X0056672Y0063060D01*
X0055611Y0064120D01*
X0053769Y0064883D01*
X0051775Y0064883D01*
X0049932Y0064120D01*
X0048522Y0062710D01*
X0047759Y0060868D01*
X0047759Y0058874D01*
X0048522Y0057031D01*
X0049932Y0055621D01*
X0051426Y0055003D01*
X0050796Y0054798D01*
X0050074Y0054430D01*
X0049419Y0053954D01*
X0048846Y0053381D01*
X0048370Y0052726D01*
X0048002Y0052004D01*
X0047752Y0051233D01*
X0047625Y0050433D01*
X0047625Y0050311D01*
X0052489Y0050311D01*
X0052489Y0054858D01*
X0053054Y0054858D01*
X0053054Y0050311D01*
X0052489Y0050311D01*
X0052489Y0049746D01*
X0047625Y0049746D01*
X0047625Y0049623D01*
X0047752Y0048823D01*
X0048002Y0048053D01*
X0048370Y0047331D01*
X0048846Y0046676D01*
X0049419Y0046103D01*
X0050074Y0045627D01*
X0050796Y0045259D01*
X0051567Y0045009D01*
X0052367Y0044882D01*
X0052489Y0044882D01*
X0052489Y0049746D01*
X0053054Y0049746D01*
X0053054Y0044882D01*
X0053177Y0044882D01*
X0053977Y0045009D01*
X0054747Y0045259D01*
X0055469Y0045627D01*
X0056124Y0046103D01*
X0056697Y0046676D01*
X0056755Y0046756D01*
X0057732Y0045779D01*
X0059575Y0045016D01*
X0061569Y0045016D01*
X0063411Y0045779D01*
X0064821Y0047189D01*
X0064899Y0047378D01*
X0094078Y0047378D01*
X0101676Y0039780D01*
X0102366Y0039090D01*
X0103268Y0038717D01*
X0213693Y0038717D01*
X0213835Y0038775D01*
X0213514Y0038146D01*
X0213264Y0037375D01*
X0213137Y0036575D01*
X0213137Y0036453D01*
X0218001Y0036453D01*
X0218001Y0035887D01*
X0218566Y0035887D01*
X0218566Y0031024D01*
X0218688Y0031024D01*
X0219489Y0031150D01*
X0220259Y0031401D01*
X0220981Y0031768D01*
X0221636Y0032245D01*
X0222209Y0032817D01*
X0222685Y0033473D01*
X0223053Y0034195D01*
X0223303Y0034965D01*
X0223318Y0035059D01*
X0224034Y0033331D01*
X0225444Y0031921D01*
X0227286Y0031157D01*
X0229281Y0031157D01*
X0229778Y0031363D01*
X0251579Y0009563D01*
X0249750Y0011391D02*
X0029140Y0011391D01*
X0029359Y0012990D02*
X0248152Y0012990D01*
X0246553Y0014588D02*
X0029359Y0014588D01*
X0029044Y0016187D02*
X0244955Y0016187D01*
X0243356Y0017785D02*
X0028596Y0017785D01*
X0027673Y0019384D02*
X0241758Y0019384D01*
X0240159Y0020982D02*
X0026396Y0020982D01*
X0024466Y0022581D02*
X0238561Y0022581D01*
X0236962Y0024179D02*
X0047146Y0024179D01*
X0046936Y0023970D02*
X0049352Y0026385D01*
X0050659Y0029541D01*
X0050659Y0032958D01*
X0049352Y0036114D01*
X0046936Y0038530D01*
X0043780Y0039837D01*
X0040364Y0039837D01*
X0037207Y0038530D01*
X0034792Y0036114D01*
X0033484Y0032958D01*
X0033484Y0029541D01*
X0034792Y0026385D01*
X0037207Y0023970D01*
X0040364Y0022662D01*
X0043780Y0022662D01*
X0046936Y0023970D01*
X0048744Y0025778D02*
X0235364Y0025778D01*
X0233765Y0027376D02*
X0049762Y0027376D01*
X0050424Y0028975D02*
X0232166Y0028975D01*
X0230568Y0030573D02*
X0050659Y0030573D01*
X0050659Y0032172D02*
X0215031Y0032172D01*
X0214931Y0032245D02*
X0215586Y0031768D01*
X0216308Y0031401D01*
X0217078Y0031150D01*
X0217878Y0031024D01*
X0218001Y0031024D01*
X0218001Y0035887D01*
X0213137Y0035887D01*
X0213137Y0035765D01*
X0213264Y0034965D01*
X0213514Y0034195D01*
X0213882Y0033473D01*
X0214358Y0032817D01*
X0214931Y0032245D01*
X0213730Y0033770D02*
X0050323Y0033770D01*
X0049660Y0035369D02*
X0213200Y0035369D01*
X0213199Y0036967D02*
X0048498Y0036967D01*
X0046849Y0038566D02*
X0213728Y0038566D01*
X0218001Y0035369D02*
X0218566Y0035369D01*
X0218566Y0033770D02*
X0218001Y0033770D01*
X0218001Y0032172D02*
X0218566Y0032172D01*
X0221536Y0032172D02*
X0225193Y0032172D01*
X0223852Y0033770D02*
X0222837Y0033770D01*
X0258480Y0039202D02*
X0266748Y0047469D01*
X0266748Y0048650D01*
X0267929Y0052587D02*
X0262024Y0052587D01*
X0261236Y0051800D01*
X0267929Y0052587D02*
X0269110Y0053769D01*
X0281315Y0053769D01*
X0299031Y0042351D02*
X0299031Y0096682D01*
X0298244Y0097469D01*
X0299425Y0098257D02*
X0299819Y0098257D01*
X0317929Y0098257D01*
X0324595Y0096112D02*
X0342503Y0096112D01*
X0342503Y0094514D02*
X0323532Y0094514D01*
X0323532Y0092915D02*
X0342503Y0092915D01*
X0342503Y0091317D02*
X0323532Y0091317D01*
X0323532Y0089718D02*
X0342503Y0089718D01*
X0342503Y0088120D02*
X0323532Y0088120D01*
X0323532Y0086521D02*
X0342503Y0086521D01*
X0342503Y0084923D02*
X0323532Y0084923D01*
X0323532Y0083324D02*
X0342503Y0083324D01*
X0342503Y0081726D02*
X0323532Y0081726D01*
X0323532Y0073733D02*
X0342503Y0073733D01*
X0342503Y0072134D02*
X0323532Y0072134D01*
X0323532Y0070536D02*
X0342503Y0070536D01*
X0342503Y0068937D02*
X0323532Y0068937D01*
X0323532Y0067339D02*
X0342503Y0067339D01*
X0342503Y0065740D02*
X0328275Y0065740D01*
X0329335Y0064142D02*
X0342481Y0064142D01*
X0341703Y0062543D02*
X0329439Y0062543D01*
X0328663Y0060945D02*
X0341879Y0060945D01*
X0343026Y0059346D02*
X0330012Y0059346D01*
X0331611Y0057748D02*
X0474609Y0057748D01*
X0474609Y0059346D02*
X0346888Y0059346D01*
X0348034Y0060945D02*
X0474609Y0060945D01*
X0474609Y0062543D02*
X0348210Y0062543D01*
X0347432Y0064142D02*
X0474609Y0064142D01*
X0474609Y0065740D02*
X0347410Y0065740D01*
X0347410Y0067339D02*
X0474609Y0067339D01*
X0474609Y0068937D02*
X0347410Y0068937D01*
X0347410Y0070536D02*
X0474609Y0070536D01*
X0474609Y0072134D02*
X0347410Y0072134D01*
X0347410Y0073733D02*
X0474609Y0073733D01*
X0474609Y0075332D02*
X0347410Y0075332D01*
X0347410Y0076930D02*
X0474609Y0076930D01*
X0474609Y0078529D02*
X0376845Y0078529D01*
X0375352Y0078529D02*
X0347410Y0078529D01*
X0347410Y0080127D02*
X0373245Y0080127D01*
X0372845Y0081726D02*
X0347410Y0081726D01*
X0347410Y0083324D02*
X0373233Y0083324D01*
X0373645Y0084923D02*
X0347410Y0084923D01*
X0347410Y0086521D02*
X0373645Y0086521D01*
X0373645Y0088120D02*
X0347410Y0088120D01*
X0347410Y0089718D02*
X0373645Y0089718D01*
X0373645Y0091317D02*
X0347410Y0091317D01*
X0347410Y0092915D02*
X0373645Y0092915D01*
X0373645Y0094514D02*
X0347410Y0094514D01*
X0347410Y0096112D02*
X0373645Y0096112D01*
X0373645Y0097711D02*
X0347410Y0097711D01*
X0347410Y0099309D02*
X0373645Y0099309D01*
X0373645Y0100908D02*
X0347410Y0100908D01*
X0347410Y0102506D02*
X0373645Y0102506D01*
X0373645Y0104105D02*
X0347410Y0104105D01*
X0347410Y0105703D02*
X0373645Y0105703D01*
X0373645Y0107302D02*
X0347767Y0107302D01*
X0349365Y0108900D02*
X0373645Y0108900D01*
X0373645Y0110499D02*
X0350964Y0110499D01*
X0352562Y0112097D02*
X0373645Y0112097D01*
X0373645Y0113696D02*
X0354161Y0113696D01*
X0355759Y0115294D02*
X0373645Y0115294D01*
X0373645Y0116893D02*
X0357358Y0116893D01*
X0358956Y0118491D02*
X0374596Y0118491D01*
X0376194Y0120090D02*
X0360555Y0120090D01*
X0362153Y0121688D02*
X0377793Y0121688D01*
X0379391Y0123287D02*
X0363752Y0123287D01*
X0365350Y0124885D02*
X0380990Y0124885D01*
X0382588Y0126484D02*
X0366949Y0126484D01*
X0368548Y0128082D02*
X0384187Y0128082D01*
X0385785Y0129681D02*
X0370146Y0129681D01*
X0371745Y0131279D02*
X0387384Y0131279D01*
X0388982Y0132878D02*
X0373343Y0132878D01*
X0374942Y0134476D02*
X0390581Y0134476D01*
X0392179Y0136075D02*
X0376540Y0136075D01*
X0378139Y0137673D02*
X0393778Y0137673D01*
X0393999Y0139272D02*
X0379737Y0139272D01*
X0381336Y0140870D02*
X0393999Y0140870D01*
X0393999Y0142469D02*
X0382934Y0142469D01*
X0384533Y0144068D02*
X0393999Y0144068D01*
X0393999Y0145666D02*
X0386131Y0145666D01*
X0387730Y0147265D02*
X0393999Y0147265D01*
X0393999Y0148863D02*
X0389328Y0148863D01*
X0390927Y0150462D02*
X0393999Y0150462D01*
X0393999Y0152060D02*
X0392525Y0152060D01*
X0383901Y0155257D02*
X0344847Y0155257D01*
X0343249Y0153659D02*
X0382302Y0153659D01*
X0380704Y0152060D02*
X0342202Y0152060D01*
X0343800Y0150462D02*
X0379105Y0150462D01*
X0377507Y0148863D02*
X0345399Y0148863D01*
X0346209Y0147265D02*
X0375908Y0147265D01*
X0374310Y0145666D02*
X0346209Y0145666D01*
X0346209Y0144068D02*
X0372711Y0144068D01*
X0371113Y0142469D02*
X0367994Y0142469D01*
X0368427Y0140870D02*
X0369514Y0140870D01*
X0362353Y0142469D02*
X0360832Y0142469D01*
X0357704Y0142469D02*
X0346209Y0142469D01*
X0346209Y0140870D02*
X0356274Y0140870D01*
X0355475Y0139272D02*
X0346209Y0139272D01*
X0346209Y0137673D02*
X0353876Y0137673D01*
X0352278Y0136075D02*
X0346762Y0136075D01*
X0349933Y0134476D02*
X0350679Y0134476D01*
X0341108Y0132878D02*
X0309514Y0132878D01*
X0307915Y0134476D02*
X0340502Y0134476D01*
X0340749Y0136075D02*
X0306317Y0136075D01*
X0304718Y0137673D02*
X0341302Y0137673D01*
X0341302Y0139272D02*
X0304238Y0139272D01*
X0303263Y0140870D02*
X0341302Y0140870D01*
X0341302Y0142469D02*
X0304186Y0142469D01*
X0304274Y0144068D02*
X0341302Y0144068D01*
X0341302Y0145666D02*
X0303349Y0145666D01*
X0300619Y0147265D02*
X0340058Y0147265D01*
X0338459Y0148863D02*
X0298516Y0148863D01*
X0297391Y0150462D02*
X0335429Y0150462D01*
X0333578Y0152060D02*
X0297281Y0152060D01*
X0296056Y0153659D02*
X0331979Y0153659D01*
X0330381Y0155257D02*
X0294458Y0155257D01*
X0292859Y0156856D02*
X0328782Y0156856D01*
X0327184Y0158454D02*
X0291261Y0158454D01*
X0289116Y0153659D02*
X0284871Y0153659D01*
X0283035Y0153659D02*
X0260879Y0153659D01*
X0259280Y0155257D02*
X0281070Y0155257D01*
X0280699Y0156856D02*
X0257682Y0156856D01*
X0256083Y0158454D02*
X0281116Y0158454D01*
X0283303Y0160053D02*
X0254485Y0160053D01*
X0253866Y0161651D02*
X0323987Y0161651D01*
X0325585Y0160053D02*
X0284602Y0160053D01*
X0286817Y0152060D02*
X0290715Y0152060D01*
X0292313Y0150462D02*
X0287443Y0150462D01*
X0273912Y0152060D02*
X0262477Y0152060D01*
X0264076Y0150462D02*
X0272314Y0150462D01*
X0269593Y0148863D02*
X0265674Y0148863D01*
X0267273Y0147265D02*
X0269105Y0147265D01*
X0268872Y0145666D02*
X0269404Y0145666D01*
X0270470Y0144068D02*
X0271023Y0144068D01*
X0272069Y0142469D02*
X0273987Y0142469D01*
X0274250Y0140870D02*
X0273667Y0140870D01*
X0275266Y0139272D02*
X0275697Y0139272D01*
X0271523Y0136075D02*
X0254674Y0136075D01*
X0254674Y0137673D02*
X0269924Y0137673D01*
X0268326Y0139272D02*
X0254674Y0139272D01*
X0254674Y0140870D02*
X0266727Y0140870D01*
X0265129Y0142469D02*
X0254674Y0142469D01*
X0254674Y0144068D02*
X0263530Y0144068D01*
X0261932Y0145666D02*
X0255427Y0145666D01*
X0255395Y0147265D02*
X0260333Y0147265D01*
X0258735Y0148863D02*
X0254385Y0148863D01*
X0257136Y0150462D02*
X0238978Y0150462D01*
X0240576Y0152060D02*
X0255538Y0152060D01*
X0253939Y0153659D02*
X0242764Y0153659D01*
X0242494Y0153546D02*
X0243689Y0154042D01*
X0244605Y0154957D01*
X0245100Y0156153D01*
X0245100Y0157447D01*
X0244605Y0158643D01*
X0243689Y0159558D01*
X0242494Y0160054D01*
X0241199Y0160054D01*
X0240003Y0159558D01*
X0239088Y0158643D01*
X0238593Y0157447D01*
X0238593Y0157016D01*
X0230646Y0149069D01*
X0230215Y0149069D01*
X0229019Y0148574D01*
X0228104Y0147659D01*
X0227609Y0146463D01*
X0227609Y0145169D01*
X0228104Y0143973D01*
X0229019Y0143058D01*
X0230215Y0142562D01*
X0231509Y0142562D01*
X0232705Y0143058D01*
X0233620Y0143973D01*
X0234116Y0145169D01*
X0234116Y0145599D01*
X0242063Y0153546D01*
X0242494Y0153546D01*
X0244729Y0155257D02*
X0252341Y0155257D01*
X0250253Y0156856D02*
X0245100Y0156856D01*
X0244683Y0158454D02*
X0248147Y0158454D01*
X0247746Y0160053D02*
X0242496Y0160053D01*
X0241197Y0160053D02*
X0180108Y0160053D01*
X0179650Y0160511D02*
X0177409Y0161439D01*
X0174984Y0161439D01*
X0172744Y0160511D01*
X0171030Y0158796D01*
X0170102Y0156556D01*
X0170102Y0154131D01*
X0171030Y0151891D01*
X0172744Y0150176D01*
X0174984Y0149248D01*
X0177409Y0149248D01*
X0179650Y0150176D01*
X0181364Y0151891D01*
X0182292Y0154131D01*
X0182292Y0156556D01*
X0181364Y0158796D01*
X0179650Y0160511D01*
X0181506Y0158454D02*
X0239010Y0158454D01*
X0238432Y0156856D02*
X0182168Y0156856D01*
X0182292Y0155257D02*
X0236834Y0155257D01*
X0235235Y0153659D02*
X0182096Y0153659D01*
X0181434Y0152060D02*
X0233637Y0152060D01*
X0232038Y0150462D02*
X0179935Y0150462D01*
X0172459Y0150462D02*
X0153052Y0150462D01*
X0151454Y0152060D02*
X0170959Y0152060D01*
X0170297Y0153659D02*
X0149855Y0153659D01*
X0148257Y0155257D02*
X0170102Y0155257D01*
X0170226Y0156856D02*
X0146658Y0156856D01*
X0145060Y0158454D02*
X0170888Y0158454D01*
X0172286Y0160053D02*
X0143461Y0160053D01*
X0141863Y0161651D02*
X0248134Y0161651D01*
X0250180Y0163250D02*
X0140264Y0163250D01*
X0138666Y0164848D02*
X0320790Y0164848D01*
X0322388Y0163250D02*
X0251820Y0163250D01*
X0245184Y0148863D02*
X0237379Y0148863D01*
X0235781Y0147265D02*
X0244695Y0147265D01*
X0243109Y0145666D02*
X0234182Y0145666D01*
X0233660Y0144068D02*
X0241510Y0144068D01*
X0239912Y0142469D02*
X0161045Y0142469D01*
X0162643Y0140870D02*
X0238313Y0140870D01*
X0236715Y0139272D02*
X0164242Y0139272D01*
X0165840Y0137673D02*
X0235116Y0137673D01*
X0233518Y0136075D02*
X0167439Y0136075D01*
X0169037Y0134476D02*
X0231919Y0134476D01*
X0230321Y0132878D02*
X0170636Y0132878D01*
X0172234Y0131279D02*
X0183002Y0131279D01*
X0184746Y0131279D02*
X0228722Y0131279D01*
X0227124Y0129681D02*
X0186749Y0129681D01*
X0187260Y0128082D02*
X0225525Y0128082D01*
X0223927Y0126484D02*
X0187548Y0126484D01*
X0187548Y0124885D02*
X0222328Y0124885D01*
X0220730Y0123287D02*
X0187548Y0123287D01*
X0187548Y0121688D02*
X0219131Y0121688D01*
X0217688Y0120090D02*
X0187548Y0120090D01*
X0187548Y0118491D02*
X0217424Y0118491D01*
X0217424Y0116893D02*
X0187548Y0116893D01*
X0187548Y0115294D02*
X0217424Y0115294D01*
X0217424Y0113696D02*
X0187548Y0113696D01*
X0187548Y0112097D02*
X0217424Y0112097D01*
X0217424Y0110499D02*
X0187548Y0110499D01*
X0187548Y0108900D02*
X0216990Y0108900D01*
X0216624Y0107302D02*
X0187548Y0107302D01*
X0187548Y0105703D02*
X0217047Y0105703D01*
X0218024Y0104105D02*
X0187548Y0104105D01*
X0187548Y0102506D02*
X0216425Y0102506D01*
X0214827Y0100908D02*
X0187548Y0100908D01*
X0187548Y0099309D02*
X0213228Y0099309D01*
X0211630Y0097711D02*
X0187548Y0097711D01*
X0187548Y0096112D02*
X0210031Y0096112D01*
X0208433Y0094514D02*
X0187548Y0094514D01*
X0187548Y0092915D02*
X0206834Y0092915D01*
X0205236Y0091317D02*
X0187548Y0091317D01*
X0187548Y0089718D02*
X0203637Y0089718D01*
X0202039Y0088120D02*
X0187548Y0088120D01*
X0187548Y0086521D02*
X0200440Y0086521D01*
X0209443Y0084923D02*
X0250179Y0084923D01*
X0251821Y0084923D02*
X0255456Y0084923D01*
X0257054Y0086521D02*
X0211041Y0086521D01*
X0212640Y0088120D02*
X0258653Y0088120D01*
X0260251Y0089718D02*
X0214238Y0089718D01*
X0215837Y0091317D02*
X0284545Y0091317D01*
X0287534Y0091317D02*
X0292247Y0091317D01*
X0292247Y0092915D02*
X0217435Y0092915D01*
X0219034Y0094514D02*
X0292247Y0094514D01*
X0292247Y0096112D02*
X0220632Y0096112D01*
X0222231Y0097711D02*
X0292247Y0097711D01*
X0292247Y0099309D02*
X0223829Y0099309D01*
X0225428Y0100908D02*
X0292247Y0100908D01*
X0292247Y0102506D02*
X0227026Y0102506D01*
X0228625Y0104105D02*
X0292247Y0104105D01*
X0292247Y0105703D02*
X0230223Y0105703D01*
X0231822Y0107302D02*
X0292247Y0107302D01*
X0292247Y0108900D02*
X0233420Y0108900D01*
X0235019Y0110499D02*
X0292247Y0110499D01*
X0292247Y0112097D02*
X0236617Y0112097D01*
X0238216Y0113696D02*
X0292247Y0113696D01*
X0291393Y0115294D02*
X0239815Y0115294D01*
X0241413Y0116893D02*
X0290705Y0116893D01*
X0289107Y0118491D02*
X0243012Y0118491D01*
X0244610Y0120090D02*
X0268403Y0120090D01*
X0270211Y0120090D02*
X0287508Y0120090D01*
X0285910Y0121688D02*
X0272187Y0121688D01*
X0272561Y0123287D02*
X0284311Y0123287D01*
X0282713Y0124885D02*
X0272146Y0124885D01*
X0269970Y0126484D02*
X0281114Y0126484D01*
X0279515Y0128082D02*
X0248941Y0128082D01*
X0247343Y0126484D02*
X0268644Y0126484D01*
X0274720Y0132878D02*
X0253737Y0132878D01*
X0254674Y0134476D02*
X0273121Y0134476D01*
X0276318Y0131279D02*
X0252138Y0131279D01*
X0250540Y0129681D02*
X0277917Y0129681D01*
X0274387Y0144068D02*
X0273693Y0144068D01*
X0311112Y0131279D02*
X0332217Y0131279D01*
X0331210Y0129681D02*
X0312711Y0129681D01*
X0314309Y0128082D02*
X0331181Y0128082D01*
X0332148Y0126484D02*
X0315908Y0126484D01*
X0317506Y0124885D02*
X0341088Y0124885D01*
X0339489Y0123287D02*
X0319105Y0123287D01*
X0320704Y0121688D02*
X0337891Y0121688D01*
X0336292Y0120090D02*
X0322302Y0120090D01*
X0323901Y0118491D02*
X0334694Y0118491D01*
X0333095Y0116893D02*
X0324891Y0116893D01*
X0324891Y0115294D02*
X0331497Y0115294D01*
X0329898Y0113696D02*
X0324891Y0113696D01*
X0324891Y0112097D02*
X0328300Y0112097D01*
X0326701Y0110499D02*
X0324891Y0110499D01*
X0331971Y0104105D02*
X0333863Y0104105D01*
X0333842Y0105703D02*
X0333570Y0105703D01*
X0334866Y0102506D02*
X0330373Y0102506D01*
X0328774Y0100908D02*
X0342503Y0100908D01*
X0342503Y0102506D02*
X0339221Y0102506D01*
X0340223Y0104105D02*
X0342503Y0104105D01*
X0342503Y0105703D02*
X0341286Y0105703D01*
X0342503Y0099309D02*
X0327176Y0099309D01*
X0325577Y0097711D02*
X0342503Y0097711D01*
X0342503Y0080127D02*
X0341447Y0080127D01*
X0342402Y0078529D02*
X0342503Y0078529D01*
X0342503Y0076930D02*
X0342357Y0076930D01*
X0342503Y0075332D02*
X0341337Y0075332D01*
X0324119Y0065740D02*
X0323532Y0065740D01*
X0326197Y0063217D02*
X0326197Y0059674D01*
X0341157Y0044713D01*
X0338196Y0043361D02*
X0312533Y0043361D01*
X0311804Y0044960D02*
X0337423Y0044960D01*
X0335825Y0046558D02*
X0310252Y0046558D01*
X0311850Y0048157D02*
X0334226Y0048157D01*
X0332628Y0049755D02*
X0313449Y0049755D01*
X0315047Y0051354D02*
X0331029Y0051354D01*
X0329431Y0052952D02*
X0316646Y0052952D01*
X0318244Y0054551D02*
X0327832Y0054551D01*
X0326234Y0056149D02*
X0319843Y0056149D01*
X0321441Y0057748D02*
X0324635Y0057748D01*
X0323731Y0059346D02*
X0323040Y0059346D01*
X0322469Y0058775D02*
X0322469Y0058775D01*
X0323532Y0060945D02*
X0323731Y0060945D01*
X0333209Y0056149D02*
X0474609Y0056149D01*
X0474609Y0054551D02*
X0334808Y0054551D01*
X0336406Y0052952D02*
X0474609Y0052952D01*
X0474609Y0051354D02*
X0338005Y0051354D01*
X0339603Y0049755D02*
X0474609Y0049755D01*
X0474609Y0048157D02*
X0341202Y0048157D01*
X0343914Y0046558D02*
X0474609Y0046558D01*
X0474609Y0044960D02*
X0344411Y0044960D01*
X0344119Y0043361D02*
X0474609Y0043361D01*
X0474609Y0041763D02*
X0342536Y0041763D01*
X0339779Y0041763D02*
X0314131Y0041763D01*
X0315730Y0040164D02*
X0474609Y0040164D01*
X0474609Y0038566D02*
X0317328Y0038566D01*
X0318927Y0036967D02*
X0474609Y0036967D01*
X0474609Y0035369D02*
X0320525Y0035369D01*
X0322124Y0033770D02*
X0474609Y0033770D01*
X0474609Y0032172D02*
X0323722Y0032172D01*
X0325321Y0030573D02*
X0474609Y0030573D01*
X0474609Y0028975D02*
X0326919Y0028975D01*
X0328518Y0027376D02*
X0474609Y0027376D01*
X0474609Y0025778D02*
X0330116Y0025778D01*
X0331715Y0024179D02*
X0465857Y0024179D01*
X0469214Y0024179D02*
X0474609Y0024179D01*
X0474609Y0022581D02*
X0473285Y0022581D01*
X0461786Y0022581D02*
X0333313Y0022581D01*
X0334912Y0020982D02*
X0459856Y0020982D01*
X0458579Y0019384D02*
X0387620Y0019384D01*
X0388112Y0017785D02*
X0457656Y0017785D01*
X0457208Y0016187D02*
X0387816Y0016187D01*
X0386214Y0014588D02*
X0456893Y0014588D01*
X0456893Y0012990D02*
X0281819Y0012990D01*
X0283417Y0014588D02*
X0383502Y0014588D01*
X0384858Y0017548D02*
X0334858Y0017548D01*
X0308874Y0043532D01*
X0276984Y0011643D01*
X0275409Y0011643D01*
X0278622Y0009793D02*
X0457541Y0009793D01*
X0457112Y0011391D02*
X0280220Y0011391D01*
X0285016Y0016187D02*
X0332732Y0016187D01*
X0331134Y0017785D02*
X0286614Y0017785D01*
X0288213Y0019384D02*
X0329535Y0019384D01*
X0327937Y0020982D02*
X0289812Y0020982D01*
X0291410Y0022581D02*
X0326338Y0022581D01*
X0324739Y0024179D02*
X0293009Y0024179D01*
X0294607Y0025778D02*
X0323141Y0025778D01*
X0321542Y0027376D02*
X0296206Y0027376D01*
X0297804Y0028975D02*
X0319944Y0028975D01*
X0318345Y0030573D02*
X0299403Y0030573D01*
X0301001Y0032172D02*
X0316747Y0032172D01*
X0315148Y0033770D02*
X0302600Y0033770D01*
X0304198Y0035369D02*
X0313550Y0035369D01*
X0311951Y0036967D02*
X0305797Y0036967D01*
X0307395Y0038566D02*
X0310353Y0038566D01*
X0289976Y0071091D02*
X0278953Y0071091D01*
X0280734Y0073733D02*
X0288471Y0073733D01*
X0289615Y0075332D02*
X0282332Y0075332D01*
X0283931Y0076930D02*
X0292247Y0076930D01*
X0292247Y0078529D02*
X0285529Y0078529D01*
X0288259Y0080127D02*
X0292247Y0080127D01*
X0292247Y0081726D02*
X0289237Y0081726D01*
X0290764Y0081721D02*
X0290764Y0096288D01*
X0287614Y0099438D01*
X0289021Y0089718D02*
X0292247Y0089718D01*
X0292247Y0088120D02*
X0289293Y0088120D01*
X0288747Y0086521D02*
X0292247Y0086521D01*
X0292247Y0084923D02*
X0288227Y0084923D01*
X0289223Y0083324D02*
X0292247Y0083324D01*
X0291551Y0072666D02*
X0289976Y0071091D01*
X0271571Y0072942D02*
X0268933Y0070304D01*
X0224917Y0070304D01*
X0194975Y0073733D02*
X0179005Y0073733D01*
X0179005Y0072134D02*
X0193376Y0072134D01*
X0191778Y0070536D02*
X0179005Y0070536D01*
X0180672Y0068937D02*
X0190179Y0068937D01*
X0188581Y0067339D02*
X0181739Y0067339D01*
X0182292Y0065740D02*
X0186982Y0065740D01*
X0185384Y0064142D02*
X0182292Y0064142D01*
X0181863Y0062543D02*
X0183785Y0062543D01*
X0182187Y0060945D02*
X0180970Y0060945D01*
X0180588Y0059346D02*
X0178977Y0059346D01*
X0178990Y0057748D02*
X0065118Y0057748D01*
X0065584Y0059346D02*
X0112393Y0059346D01*
X0111721Y0059625D02*
X0113961Y0058697D01*
X0116386Y0058697D01*
X0118626Y0059625D01*
X0120341Y0061339D01*
X0121079Y0063122D01*
X0121817Y0061339D01*
X0123532Y0059625D01*
X0125772Y0058697D01*
X0128197Y0058697D01*
X0130437Y0059625D01*
X0132152Y0061339D01*
X0133080Y0063580D01*
X0133080Y0066005D01*
X0132152Y0068245D01*
X0130437Y0069959D01*
X0128197Y0070887D01*
X0125772Y0070887D01*
X0123806Y0070073D01*
X0137745Y0084013D01*
X0138119Y0084914D01*
X0138119Y0127997D01*
X0137745Y0128898D01*
X0137055Y0129589D01*
X0091898Y0174746D01*
X0090996Y0175120D01*
X0083943Y0175120D01*
X0083530Y0176119D01*
X0081815Y0177833D01*
X0079575Y0178761D01*
X0077150Y0178761D01*
X0074909Y0177833D01*
X0073195Y0176119D01*
X0072267Y0173879D01*
X0072267Y0171454D01*
X0073195Y0169213D01*
X0074909Y0167499D01*
X0077150Y0166571D01*
X0079575Y0166571D01*
X0081815Y0167499D01*
X0083530Y0169213D01*
X0083943Y0170213D01*
X0089492Y0170213D01*
X0101671Y0158033D01*
X0084172Y0158033D01*
X0083530Y0159583D01*
X0081815Y0161298D01*
X0079575Y0162226D01*
X0077150Y0162226D01*
X0074909Y0161298D01*
X0073195Y0159583D01*
X0072267Y0157343D01*
X0072267Y0154918D01*
X0072845Y0153524D01*
X0065501Y0160867D01*
X0065501Y0167052D01*
X0065127Y0167954D01*
X0062459Y0170622D01*
X0062804Y0171454D01*
X0062804Y0173879D01*
X0061876Y0176119D01*
X0060161Y0177833D01*
X0057921Y0178761D01*
X0055496Y0178761D01*
X0053256Y0177833D01*
X0051541Y0176119D01*
X0050613Y0173879D01*
X0050613Y0171454D01*
X0051541Y0169213D01*
X0053256Y0167499D01*
X0055496Y0166571D01*
X0057921Y0166571D01*
X0059087Y0167054D01*
X0060594Y0165547D01*
X0060594Y0160866D01*
X0060161Y0161298D01*
X0057921Y0162226D01*
X0055496Y0162226D01*
X0053256Y0161298D01*
X0051541Y0159583D01*
X0050613Y0157343D01*
X0050613Y0154918D01*
X0051541Y0152678D01*
X0053256Y0150963D01*
X0055496Y0150035D01*
X0057921Y0150035D01*
X0060161Y0150963D01*
X0061876Y0152678D01*
X0062804Y0154918D01*
X0062804Y0156625D01*
X0072031Y0147397D01*
X0072933Y0147024D01*
X0079118Y0147024D01*
X0081070Y0145071D01*
X0079575Y0145691D01*
X0077150Y0145691D01*
X0074909Y0144763D01*
X0073195Y0143048D01*
X0072267Y0140808D01*
X0072267Y0138383D01*
X0073195Y0136143D01*
X0074909Y0134428D01*
X0077150Y0133500D01*
X0079575Y0133500D01*
X0081815Y0134428D01*
X0083530Y0136143D01*
X0084457Y0138383D01*
X0084457Y0140808D01*
X0083838Y0142303D01*
X0104374Y0121767D01*
X0105276Y0121394D01*
X0109592Y0121394D01*
X0110006Y0120395D01*
X0111721Y0118680D01*
X0113961Y0117752D01*
X0116386Y0117752D01*
X0118626Y0118680D01*
X0120341Y0120395D01*
X0121079Y0122177D01*
X0121817Y0120395D01*
X0123532Y0118680D01*
X0125772Y0117752D01*
X0128197Y0117752D01*
X0130437Y0118680D01*
X0130771Y0119014D01*
X0130771Y0108997D01*
X0123610Y0101837D01*
X0122291Y0102383D01*
X0119866Y0102383D01*
X0117626Y0101455D01*
X0115911Y0099741D01*
X0114983Y0097501D01*
X0114983Y0095076D01*
X0115911Y0092835D01*
X0117626Y0091121D01*
X0119866Y0090193D01*
X0122291Y0090193D01*
X0124531Y0091121D01*
X0126246Y0092835D01*
X0127174Y0095076D01*
X0127174Y0097501D01*
X0126893Y0098180D01*
X0133212Y0104499D01*
X0133212Y0086419D01*
X0117301Y0070508D01*
X0116386Y0070887D01*
X0113961Y0070887D01*
X0111721Y0069959D01*
X0110006Y0068245D01*
X0109078Y0066005D01*
X0109078Y0063580D01*
X0110006Y0061339D01*
X0111721Y0059625D01*
X0110400Y0060945D02*
X0065552Y0060945D01*
X0064890Y0062543D02*
X0109507Y0062543D01*
X0109078Y0064142D02*
X0063359Y0064142D01*
X0057784Y0064142D02*
X0055559Y0064142D01*
X0049984Y0064142D02*
X0011643Y0064142D01*
X0011643Y0065740D02*
X0109078Y0065740D01*
X0109631Y0067339D02*
X0011643Y0067339D01*
X0011643Y0068937D02*
X0110699Y0068937D01*
X0113112Y0070536D02*
X0044924Y0070536D01*
X0043780Y0070062D02*
X0046936Y0071370D01*
X0049352Y0073785D01*
X0050659Y0076941D01*
X0050659Y0080358D01*
X0049352Y0083514D01*
X0046936Y0085930D01*
X0043780Y0087237D01*
X0040364Y0087237D01*
X0037207Y0085930D01*
X0034792Y0083514D01*
X0033484Y0080358D01*
X0033484Y0076941D01*
X0034792Y0073785D01*
X0037207Y0071370D01*
X0040364Y0070062D01*
X0043780Y0070062D01*
X0047701Y0072134D02*
X0118928Y0072134D01*
X0117329Y0070536D02*
X0117234Y0070536D01*
X0120526Y0073733D02*
X0049299Y0073733D01*
X0049992Y0075332D02*
X0122125Y0075332D01*
X0123723Y0076930D02*
X0050654Y0076930D01*
X0050659Y0078529D02*
X0125322Y0078529D01*
X0126920Y0080127D02*
X0050659Y0080127D01*
X0050092Y0081726D02*
X0128519Y0081726D01*
X0130117Y0083324D02*
X0049430Y0083324D01*
X0047943Y0084923D02*
X0131716Y0084923D01*
X0133212Y0086521D02*
X0045508Y0086521D01*
X0038635Y0086521D02*
X0011643Y0086521D01*
X0011643Y0084923D02*
X0036200Y0084923D01*
X0034713Y0083324D02*
X0011643Y0083324D01*
X0011643Y0081726D02*
X0034051Y0081726D01*
X0033484Y0080127D02*
X0011643Y0080127D01*
X0011643Y0078529D02*
X0033484Y0078529D01*
X0033489Y0076930D02*
X0011643Y0076930D01*
X0011643Y0075332D02*
X0034151Y0075332D01*
X0034844Y0073733D02*
X0011643Y0073733D01*
X0011643Y0072134D02*
X0036442Y0072134D01*
X0039220Y0070536D02*
X0011643Y0070536D01*
X0011643Y0062543D02*
X0048453Y0062543D01*
X0047791Y0060945D02*
X0011643Y0060945D01*
X0011643Y0059346D02*
X0047759Y0059346D01*
X0048225Y0057748D02*
X0011643Y0057748D01*
X0011643Y0056149D02*
X0049404Y0056149D01*
X0050312Y0054551D02*
X0011643Y0054551D01*
X0011643Y0052952D02*
X0048535Y0052952D01*
X0047791Y0051354D02*
X0011643Y0051354D01*
X0011643Y0049755D02*
X0052489Y0049755D01*
X0052489Y0048157D02*
X0053054Y0048157D01*
X0053054Y0046558D02*
X0052489Y0046558D01*
X0052489Y0044960D02*
X0053054Y0044960D01*
X0053669Y0044960D02*
X0096496Y0044960D01*
X0094898Y0046558D02*
X0064191Y0046558D01*
X0056953Y0046558D02*
X0056580Y0046558D01*
X0051875Y0044960D02*
X0011643Y0044960D01*
X0011643Y0046558D02*
X0048963Y0046558D01*
X0047968Y0048157D02*
X0011643Y0048157D01*
X0011643Y0043361D02*
X0098095Y0043361D01*
X0099693Y0041763D02*
X0011643Y0041763D01*
X0011643Y0040164D02*
X0101292Y0040164D01*
X0101837Y0046558D02*
X0102250Y0046558D01*
X0100239Y0048157D02*
X0169399Y0048157D01*
X0170997Y0049755D02*
X0098640Y0049755D01*
X0097042Y0051354D02*
X0172596Y0051354D01*
X0174194Y0052952D02*
X0064737Y0052952D01*
X0062752Y0054551D02*
X0175793Y0054551D01*
X0177391Y0056149D02*
X0063939Y0056149D01*
X0053054Y0054551D02*
X0052489Y0054551D01*
X0052489Y0052952D02*
X0053054Y0052952D01*
X0053054Y0051354D02*
X0052489Y0051354D01*
X0037294Y0038566D02*
X0011643Y0038566D01*
X0011643Y0036967D02*
X0035645Y0036967D01*
X0034483Y0035369D02*
X0011643Y0035369D01*
X0011643Y0033770D02*
X0033821Y0033770D01*
X0033484Y0032172D02*
X0011643Y0032172D01*
X0011643Y0030573D02*
X0033484Y0030573D01*
X0033719Y0028975D02*
X0011643Y0028975D01*
X0011643Y0027376D02*
X0034381Y0027376D01*
X0035399Y0025778D02*
X0011643Y0025778D01*
X0011643Y0024179D02*
X0017038Y0024179D01*
X0020395Y0024179D02*
X0036998Y0024179D01*
X0012967Y0022581D02*
X0011643Y0022581D01*
X0117954Y0059346D02*
X0124204Y0059346D01*
X0122211Y0060945D02*
X0119946Y0060945D01*
X0120839Y0062543D02*
X0121318Y0062543D01*
X0129765Y0059346D02*
X0173416Y0059346D01*
X0171424Y0060945D02*
X0131757Y0060945D01*
X0132650Y0062543D02*
X0170531Y0062543D01*
X0170102Y0064142D02*
X0133080Y0064142D01*
X0133080Y0065740D02*
X0170102Y0065740D01*
X0170654Y0067339D02*
X0132527Y0067339D01*
X0131459Y0068937D02*
X0171722Y0068937D01*
X0174098Y0070536D02*
X0129045Y0070536D01*
X0125867Y0072134D02*
X0174098Y0072134D01*
X0174098Y0073733D02*
X0127466Y0073733D01*
X0129064Y0075332D02*
X0174098Y0075332D01*
X0174098Y0076930D02*
X0130663Y0076930D01*
X0132261Y0078529D02*
X0174098Y0078529D01*
X0174098Y0080127D02*
X0133860Y0080127D01*
X0135458Y0081726D02*
X0174098Y0081726D01*
X0174098Y0083324D02*
X0137057Y0083324D01*
X0138119Y0084923D02*
X0174098Y0084923D01*
X0174098Y0086521D02*
X0138119Y0086521D01*
X0138119Y0088120D02*
X0174098Y0088120D01*
X0174956Y0089718D02*
X0138119Y0089718D01*
X0138119Y0091317D02*
X0172548Y0091317D01*
X0170997Y0092915D02*
X0138119Y0092915D01*
X0138119Y0094514D02*
X0170334Y0094514D01*
X0170102Y0096112D02*
X0138119Y0096112D01*
X0138119Y0097711D02*
X0170189Y0097711D01*
X0170851Y0099309D02*
X0138119Y0099309D01*
X0138119Y0100908D02*
X0172196Y0100908D01*
X0180197Y0100908D02*
X0180200Y0100908D01*
X0180200Y0102506D02*
X0138119Y0102506D01*
X0138119Y0104105D02*
X0180200Y0104105D01*
X0180200Y0105703D02*
X0138119Y0105703D01*
X0138119Y0107302D02*
X0180200Y0107302D01*
X0180200Y0108900D02*
X0138119Y0108900D01*
X0138119Y0110499D02*
X0180200Y0110499D01*
X0180200Y0112097D02*
X0138119Y0112097D01*
X0138119Y0113696D02*
X0180200Y0113696D01*
X0180200Y0115294D02*
X0138119Y0115294D01*
X0138119Y0116893D02*
X0179426Y0116893D01*
X0173199Y0118491D02*
X0138119Y0118491D01*
X0138119Y0120090D02*
X0171334Y0120090D01*
X0170494Y0121688D02*
X0138119Y0121688D01*
X0138119Y0123287D02*
X0170102Y0123287D01*
X0170102Y0124885D02*
X0138119Y0124885D01*
X0138119Y0126484D02*
X0170090Y0126484D01*
X0168492Y0128082D02*
X0138083Y0128082D01*
X0136963Y0129681D02*
X0166893Y0129681D01*
X0165295Y0131279D02*
X0135364Y0131279D01*
X0133766Y0132878D02*
X0163696Y0132878D01*
X0162098Y0134476D02*
X0132167Y0134476D01*
X0130569Y0136075D02*
X0160499Y0136075D01*
X0158901Y0137673D02*
X0128970Y0137673D01*
X0127372Y0139272D02*
X0157302Y0139272D01*
X0155704Y0140870D02*
X0125773Y0140870D01*
X0124175Y0142469D02*
X0154105Y0142469D01*
X0152507Y0144068D02*
X0122576Y0144068D01*
X0120978Y0145666D02*
X0150908Y0145666D01*
X0149310Y0147265D02*
X0119379Y0147265D01*
X0119866Y0149248D02*
X0122291Y0149248D01*
X0124531Y0150176D01*
X0126246Y0151891D01*
X0127174Y0154131D01*
X0127174Y0156556D01*
X0126246Y0158796D01*
X0124531Y0160511D01*
X0122291Y0161439D01*
X0119866Y0161439D01*
X0117626Y0160511D01*
X0115911Y0158796D01*
X0114983Y0156556D01*
X0114983Y0154131D01*
X0115911Y0151891D01*
X0117626Y0150176D01*
X0119866Y0149248D01*
X0117781Y0148863D02*
X0147711Y0148863D01*
X0146113Y0150462D02*
X0124817Y0150462D01*
X0126316Y0152060D02*
X0144514Y0152060D01*
X0142916Y0153659D02*
X0126978Y0153659D01*
X0127174Y0155257D02*
X0141317Y0155257D01*
X0139719Y0156856D02*
X0127050Y0156856D01*
X0126388Y0158454D02*
X0138120Y0158454D01*
X0136522Y0160053D02*
X0124989Y0160053D01*
X0117168Y0160053D02*
X0106591Y0160053D01*
X0104993Y0161651D02*
X0134923Y0161651D01*
X0133325Y0163250D02*
X0103394Y0163250D01*
X0101796Y0164848D02*
X0131726Y0164848D01*
X0130128Y0166447D02*
X0100197Y0166447D01*
X0098599Y0168045D02*
X0128529Y0168045D01*
X0126931Y0169644D02*
X0097000Y0169644D01*
X0095402Y0171242D02*
X0125332Y0171242D01*
X0123734Y0172841D02*
X0093803Y0172841D01*
X0092205Y0174439D02*
X0122135Y0174439D01*
X0120537Y0176038D02*
X0083563Y0176038D01*
X0082012Y0177636D02*
X0118938Y0177636D01*
X0117339Y0179235D02*
X0011643Y0179235D01*
X0011643Y0180833D02*
X0115741Y0180833D01*
X0114142Y0182432D02*
X0011643Y0182432D01*
X0011643Y0184030D02*
X0112544Y0184030D01*
X0110945Y0185629D02*
X0011643Y0185629D01*
X0011643Y0187227D02*
X0109347Y0187227D01*
X0107748Y0188826D02*
X0011643Y0188826D01*
X0011643Y0190424D02*
X0106150Y0190424D01*
X0104551Y0192023D02*
X0103337Y0192023D01*
X0101891Y0192023D02*
X0078869Y0192023D01*
X0077422Y0192023D02*
X0011643Y0192023D01*
X0011643Y0193621D02*
X0075297Y0193621D01*
X0074892Y0195220D02*
X0011643Y0195220D01*
X0011643Y0196818D02*
X0075276Y0196818D01*
X0077302Y0198417D02*
X0011643Y0198417D01*
X0011643Y0200015D02*
X0283423Y0200015D01*
X0281824Y0198417D02*
X0103458Y0198417D01*
X0101770Y0198417D02*
X0078990Y0198417D01*
X0073310Y0215291D02*
X0186958Y0215291D01*
X0188656Y0215995D01*
X0189955Y0217294D01*
X0190658Y0218991D01*
X0190658Y0220829D01*
X0189955Y0222527D01*
X0188656Y0223826D01*
X0186958Y0224529D01*
X0076142Y0224529D01*
X0070546Y0230125D01*
X0068848Y0230828D01*
X0067010Y0230828D01*
X0027640Y0230828D01*
X0025943Y0230125D01*
X0024643Y0228826D01*
X0023940Y0227128D01*
X0023940Y0225291D01*
X0024643Y0223593D01*
X0025943Y0222294D01*
X0027640Y0221591D01*
X0066016Y0221591D01*
X0070037Y0217569D01*
X0071612Y0215995D01*
X0073310Y0215291D01*
X0071606Y0216001D02*
X0011643Y0216001D01*
X0011643Y0217599D02*
X0070007Y0217599D01*
X0070037Y0217569D02*
X0070037Y0217569D01*
X0068409Y0219198D02*
X0011643Y0219198D01*
X0011643Y0220796D02*
X0066810Y0220796D01*
X0075079Y0225592D02*
X0410035Y0225592D01*
X0409557Y0227190D02*
X0073481Y0227190D01*
X0071882Y0228789D02*
X0409869Y0228789D01*
X0411543Y0230387D02*
X0069913Y0230387D01*
X0026575Y0230387D02*
X0011643Y0230387D01*
X0011643Y0228789D02*
X0024628Y0228789D01*
X0023966Y0227190D02*
X0011643Y0227190D01*
X0011643Y0225592D02*
X0023940Y0225592D01*
X0024478Y0223993D02*
X0011643Y0223993D01*
X0011643Y0222395D02*
X0025842Y0222395D01*
X0011643Y0214402D02*
X0285357Y0214402D01*
X0285357Y0212803D02*
X0011643Y0212803D01*
X0011643Y0211205D02*
X0285357Y0211205D01*
X0285357Y0209606D02*
X0011643Y0209606D01*
X0011643Y0208008D02*
X0285357Y0208008D01*
X0285357Y0206409D02*
X0011643Y0206409D01*
X0011643Y0204811D02*
X0285357Y0204811D01*
X0285357Y0203212D02*
X0011643Y0203212D01*
X0011643Y0201614D02*
X0285021Y0201614D01*
X0287165Y0196818D02*
X0288820Y0196818D01*
X0290418Y0195220D02*
X0285567Y0195220D01*
X0283968Y0193621D02*
X0292017Y0193621D01*
X0293615Y0192023D02*
X0282370Y0192023D01*
X0280771Y0190424D02*
X0295214Y0190424D01*
X0296812Y0188826D02*
X0279173Y0188826D01*
X0277574Y0187227D02*
X0298411Y0187227D01*
X0300009Y0185629D02*
X0275976Y0185629D01*
X0274377Y0184030D02*
X0301608Y0184030D01*
X0303206Y0182432D02*
X0236752Y0182432D01*
X0235327Y0182432D02*
X0121082Y0182432D01*
X0119484Y0184030D02*
X0233192Y0184030D01*
X0232786Y0185629D02*
X0117885Y0185629D01*
X0116287Y0187227D02*
X0233168Y0187227D01*
X0235185Y0188826D02*
X0114688Y0188826D01*
X0113090Y0190424D02*
X0273832Y0190424D01*
X0275430Y0192023D02*
X0111491Y0192023D01*
X0109893Y0193621D02*
X0277029Y0193621D01*
X0278627Y0195220D02*
X0108294Y0195220D01*
X0106696Y0196818D02*
X0280226Y0196818D01*
X0272233Y0188826D02*
X0236894Y0188826D01*
X0190081Y0217599D02*
X0285357Y0217599D01*
X0285357Y0216001D02*
X0188662Y0216001D01*
X0190658Y0219198D02*
X0285357Y0219198D01*
X0285507Y0220796D02*
X0190658Y0220796D01*
X0190010Y0222395D02*
X0286322Y0222395D01*
X0288714Y0223993D02*
X0188252Y0223993D01*
X0124279Y0179235D02*
X0306403Y0179235D01*
X0304805Y0180833D02*
X0122681Y0180833D01*
X0125878Y0177636D02*
X0308002Y0177636D01*
X0309600Y0176038D02*
X0127476Y0176038D01*
X0129075Y0174439D02*
X0311199Y0174439D01*
X0312797Y0172841D02*
X0130673Y0172841D01*
X0132272Y0171242D02*
X0314396Y0171242D01*
X0315994Y0169644D02*
X0133870Y0169644D01*
X0135469Y0168045D02*
X0317593Y0168045D01*
X0319191Y0166447D02*
X0137067Y0166447D01*
X0115770Y0158454D02*
X0108190Y0158454D01*
X0109788Y0156856D02*
X0115108Y0156856D01*
X0114983Y0155257D02*
X0111387Y0155257D01*
X0112985Y0153659D02*
X0115179Y0153659D01*
X0114584Y0152060D02*
X0115841Y0152060D01*
X0116182Y0150462D02*
X0117340Y0150462D01*
X0101250Y0158454D02*
X0083997Y0158454D01*
X0083060Y0160053D02*
X0099652Y0160053D01*
X0098053Y0161651D02*
X0080962Y0161651D01*
X0075762Y0161651D02*
X0065501Y0161651D01*
X0065501Y0163250D02*
X0096455Y0163250D01*
X0094856Y0164848D02*
X0065501Y0164848D01*
X0065501Y0166447D02*
X0093258Y0166447D01*
X0091659Y0168045D02*
X0082361Y0168045D01*
X0083708Y0169644D02*
X0090060Y0169644D01*
X0074363Y0168045D02*
X0065036Y0168045D01*
X0063437Y0169644D02*
X0073017Y0169644D01*
X0072355Y0171242D02*
X0062716Y0171242D01*
X0062804Y0172841D02*
X0072267Y0172841D01*
X0072499Y0174439D02*
X0062572Y0174439D01*
X0061910Y0176038D02*
X0073161Y0176038D01*
X0074712Y0177636D02*
X0060359Y0177636D01*
X0053059Y0177636D02*
X0011643Y0177636D01*
X0011643Y0176038D02*
X0051508Y0176038D01*
X0050846Y0174439D02*
X0011643Y0174439D01*
X0011643Y0172841D02*
X0050613Y0172841D01*
X0050701Y0171242D02*
X0011643Y0171242D01*
X0011643Y0169644D02*
X0051363Y0169644D01*
X0052710Y0168045D02*
X0011643Y0168045D01*
X0011643Y0166447D02*
X0059695Y0166447D01*
X0060594Y0164848D02*
X0011643Y0164848D01*
X0011643Y0163250D02*
X0060594Y0163250D01*
X0060594Y0161651D02*
X0059309Y0161651D01*
X0054108Y0161651D02*
X0011643Y0161651D01*
X0011643Y0160053D02*
X0052011Y0160053D01*
X0051074Y0158454D02*
X0011643Y0158454D01*
X0011643Y0156856D02*
X0050613Y0156856D01*
X0050613Y0155257D02*
X0011643Y0155257D01*
X0011643Y0153659D02*
X0051135Y0153659D01*
X0052159Y0152060D02*
X0011643Y0152060D01*
X0011643Y0150462D02*
X0054467Y0150462D01*
X0058950Y0150462D02*
X0068967Y0150462D01*
X0067369Y0152060D02*
X0061258Y0152060D01*
X0062282Y0153659D02*
X0065770Y0153659D01*
X0064171Y0155257D02*
X0062804Y0155257D01*
X0067914Y0158454D02*
X0072727Y0158454D01*
X0072267Y0156856D02*
X0069513Y0156856D01*
X0071111Y0155257D02*
X0072267Y0155257D01*
X0072710Y0153659D02*
X0072789Y0153659D01*
X0070566Y0148863D02*
X0011643Y0148863D01*
X0011643Y0147265D02*
X0072352Y0147265D01*
X0074214Y0144068D02*
X0060856Y0144068D01*
X0060161Y0144763D02*
X0061876Y0143048D01*
X0062804Y0140808D01*
X0062804Y0138383D01*
X0061876Y0136143D01*
X0060161Y0134428D01*
X0057921Y0133500D01*
X0055496Y0133500D01*
X0053256Y0134428D01*
X0051541Y0136143D01*
X0050613Y0138383D01*
X0050613Y0140808D01*
X0051541Y0143048D01*
X0053256Y0144763D01*
X0055496Y0145691D01*
X0057921Y0145691D01*
X0060161Y0144763D01*
X0057980Y0145666D02*
X0077091Y0145666D01*
X0079634Y0145666D02*
X0080475Y0145666D01*
X0072955Y0142469D02*
X0062116Y0142469D01*
X0062778Y0140870D02*
X0072293Y0140870D01*
X0072267Y0139272D02*
X0062804Y0139272D01*
X0062510Y0137673D02*
X0072561Y0137673D01*
X0073263Y0136075D02*
X0061808Y0136075D01*
X0060210Y0134476D02*
X0074861Y0134476D01*
X0076904Y0129136D02*
X0075971Y0128833D01*
X0075097Y0128387D01*
X0074304Y0127811D01*
X0073611Y0127118D01*
X0073035Y0126325D01*
X0072589Y0125451D01*
X0072286Y0124519D01*
X0072163Y0123736D01*
X0077686Y0123736D01*
X0077686Y0122383D01*
X0079039Y0122383D01*
X0079039Y0123736D01*
X0084562Y0123736D01*
X0084438Y0124519D01*
X0084135Y0125451D01*
X0083690Y0126325D01*
X0083114Y0127118D01*
X0082420Y0127811D01*
X0081627Y0128387D01*
X0080753Y0128833D01*
X0079821Y0129136D01*
X0079039Y0129259D01*
X0079039Y0123736D01*
X0077686Y0123736D01*
X0077686Y0129259D01*
X0076904Y0129136D01*
X0077686Y0128082D02*
X0079039Y0128082D01*
X0079039Y0126484D02*
X0077686Y0126484D01*
X0077686Y0124885D02*
X0079039Y0124885D01*
X0079039Y0123287D02*
X0102854Y0123287D01*
X0101256Y0124885D02*
X0084319Y0124885D01*
X0083574Y0126484D02*
X0099657Y0126484D01*
X0098059Y0128082D02*
X0082047Y0128082D01*
X0077686Y0123287D02*
X0062804Y0123287D01*
X0062804Y0124272D02*
X0061876Y0126513D01*
X0060161Y0128227D01*
X0057921Y0129155D01*
X0055496Y0129155D01*
X0053256Y0128227D01*
X0051541Y0126513D01*
X0050613Y0124272D01*
X0050613Y0121847D01*
X0051541Y0119607D01*
X0053256Y0117893D01*
X0055496Y0116965D01*
X0057921Y0116965D01*
X0060161Y0117893D01*
X0061876Y0119607D01*
X0062804Y0121847D01*
X0062804Y0124272D01*
X0062550Y0124885D02*
X0072406Y0124885D01*
X0073150Y0126484D02*
X0061888Y0126484D01*
X0060306Y0128082D02*
X0074678Y0128082D01*
X0072163Y0122383D02*
X0072286Y0121601D01*
X0072589Y0120669D01*
X0073035Y0119795D01*
X0073611Y0119002D01*
X0074304Y0118309D01*
X0075097Y0117732D01*
X0075971Y0117287D01*
X0076904Y0116984D01*
X0077686Y0116860D01*
X0077686Y0122383D01*
X0072163Y0122383D01*
X0072273Y0121688D02*
X0062738Y0121688D01*
X0062076Y0120090D02*
X0072884Y0120090D01*
X0074121Y0118491D02*
X0060760Y0118491D01*
X0057921Y0112620D02*
X0055496Y0112620D01*
X0053256Y0111692D01*
X0051541Y0109977D01*
X0050613Y0107737D01*
X0050613Y0105312D01*
X0051541Y0103072D01*
X0053256Y0101357D01*
X0055496Y0100429D01*
X0057921Y0100429D01*
X0060161Y0101357D01*
X0061876Y0103072D01*
X0062804Y0105312D01*
X0062804Y0107737D01*
X0061876Y0109977D01*
X0060161Y0111692D01*
X0057921Y0112620D01*
X0059182Y0112097D02*
X0075579Y0112097D01*
X0075971Y0112297D02*
X0075097Y0111852D01*
X0074304Y0111276D01*
X0073611Y0110582D01*
X0073035Y0109789D01*
X0072589Y0108916D01*
X0072286Y0107983D01*
X0072163Y0107201D01*
X0077686Y0107201D01*
X0077686Y0112724D01*
X0076904Y0112600D01*
X0075971Y0112297D01*
X0077686Y0112097D02*
X0079039Y0112097D01*
X0079039Y0112724D02*
X0079039Y0107201D01*
X0084562Y0107201D01*
X0084438Y0107983D01*
X0084135Y0108916D01*
X0083690Y0109789D01*
X0083114Y0110582D01*
X0082420Y0111276D01*
X0081627Y0111852D01*
X0080753Y0112297D01*
X0079821Y0112600D01*
X0079039Y0112724D01*
X0081146Y0112097D02*
X0130771Y0112097D01*
X0130771Y0110499D02*
X0083174Y0110499D01*
X0084140Y0108900D02*
X0130674Y0108900D01*
X0129075Y0107302D02*
X0084546Y0107302D01*
X0084562Y0105848D02*
X0079039Y0105848D01*
X0079039Y0107201D01*
X0077686Y0107201D01*
X0077686Y0105848D01*
X0079039Y0105848D01*
X0079039Y0100325D01*
X0079821Y0100449D01*
X0080753Y0100752D01*
X0081627Y0101197D01*
X0082420Y0101773D01*
X0083114Y0102466D01*
X0083690Y0103260D01*
X0084135Y0104133D01*
X0084438Y0105066D01*
X0084562Y0105848D01*
X0084539Y0105703D02*
X0127477Y0105703D01*
X0125878Y0104105D02*
X0084120Y0104105D01*
X0083142Y0102506D02*
X0124280Y0102506D01*
X0128022Y0099309D02*
X0133212Y0099309D01*
X0133212Y0097711D02*
X0127087Y0097711D01*
X0127174Y0096112D02*
X0133212Y0096112D01*
X0133212Y0094514D02*
X0126941Y0094514D01*
X0126279Y0092915D02*
X0133212Y0092915D01*
X0133212Y0091317D02*
X0124727Y0091317D01*
X0117430Y0091317D02*
X0011643Y0091317D01*
X0011643Y0092915D02*
X0115878Y0092915D01*
X0115216Y0094514D02*
X0011643Y0094514D01*
X0011643Y0096112D02*
X0114983Y0096112D01*
X0115070Y0097711D02*
X0011643Y0097711D01*
X0011643Y0099309D02*
X0115733Y0099309D01*
X0117078Y0100908D02*
X0081060Y0100908D01*
X0079039Y0100908D02*
X0077686Y0100908D01*
X0077686Y0100325D02*
X0077686Y0105848D01*
X0072163Y0105848D01*
X0072286Y0105066D01*
X0072589Y0104133D01*
X0073035Y0103260D01*
X0073611Y0102466D01*
X0074304Y0101773D01*
X0075097Y0101197D01*
X0075971Y0100752D01*
X0076904Y0100449D01*
X0077686Y0100325D01*
X0075665Y0100908D02*
X0059076Y0100908D01*
X0061310Y0102506D02*
X0073582Y0102506D01*
X0072604Y0104105D02*
X0062304Y0104105D01*
X0062804Y0105703D02*
X0072185Y0105703D01*
X0072179Y0107302D02*
X0062804Y0107302D01*
X0062322Y0108900D02*
X0072584Y0108900D01*
X0073550Y0110499D02*
X0061354Y0110499D01*
X0054235Y0112097D02*
X0011643Y0112097D01*
X0011643Y0110499D02*
X0052063Y0110499D01*
X0051095Y0108900D02*
X0011643Y0108900D01*
X0011643Y0107302D02*
X0050613Y0107302D01*
X0050613Y0105703D02*
X0011643Y0105703D01*
X0011643Y0104105D02*
X0051113Y0104105D01*
X0052107Y0102506D02*
X0011643Y0102506D01*
X0011643Y0100908D02*
X0054341Y0100908D01*
X0077686Y0102506D02*
X0079039Y0102506D01*
X0079039Y0104105D02*
X0077686Y0104105D01*
X0077686Y0105703D02*
X0079039Y0105703D01*
X0079039Y0107302D02*
X0077686Y0107302D01*
X0077686Y0108900D02*
X0079039Y0108900D01*
X0079039Y0110499D02*
X0077686Y0110499D01*
X0077686Y0116893D02*
X0079039Y0116893D01*
X0079039Y0116860D02*
X0079821Y0116984D01*
X0080753Y0117287D01*
X0081627Y0117732D01*
X0082420Y0118309D01*
X0083114Y0119002D01*
X0083690Y0119795D01*
X0084135Y0120669D01*
X0084438Y0121601D01*
X0084562Y0122383D01*
X0079039Y0122383D01*
X0079039Y0116860D01*
X0079245Y0116893D02*
X0130771Y0116893D01*
X0130771Y0118491D02*
X0129982Y0118491D01*
X0130771Y0115294D02*
X0011643Y0115294D01*
X0011643Y0113696D02*
X0130771Y0113696D01*
X0123987Y0118491D02*
X0118171Y0118491D01*
X0120036Y0120090D02*
X0122122Y0120090D01*
X0121281Y0121688D02*
X0120876Y0121688D01*
X0112176Y0118491D02*
X0082603Y0118491D01*
X0083840Y0120090D02*
X0110311Y0120090D01*
X0104564Y0121688D02*
X0084452Y0121688D01*
X0079039Y0121688D02*
X0077686Y0121688D01*
X0077686Y0120090D02*
X0079039Y0120090D01*
X0079039Y0118491D02*
X0077686Y0118491D01*
X0077480Y0116893D02*
X0011643Y0116893D01*
X0011643Y0118491D02*
X0052657Y0118491D01*
X0051341Y0120090D02*
X0011643Y0120090D01*
X0011643Y0121688D02*
X0050679Y0121688D01*
X0050613Y0123287D02*
X0011643Y0123287D01*
X0011643Y0124885D02*
X0050867Y0124885D01*
X0051529Y0126484D02*
X0011643Y0126484D01*
X0011643Y0128082D02*
X0053111Y0128082D01*
X0053207Y0134476D02*
X0011643Y0134476D01*
X0011643Y0132878D02*
X0093263Y0132878D01*
X0091665Y0134476D02*
X0081863Y0134476D01*
X0083462Y0136075D02*
X0090066Y0136075D01*
X0088468Y0137673D02*
X0084164Y0137673D01*
X0084457Y0139272D02*
X0086869Y0139272D01*
X0085271Y0140870D02*
X0084431Y0140870D01*
X0094862Y0131279D02*
X0011643Y0131279D01*
X0011643Y0129681D02*
X0096460Y0129681D01*
X0055437Y0145666D02*
X0011643Y0145666D01*
X0011643Y0144068D02*
X0052561Y0144068D01*
X0051302Y0142469D02*
X0011643Y0142469D01*
X0011643Y0140870D02*
X0050639Y0140870D01*
X0050613Y0139272D02*
X0011643Y0139272D01*
X0011643Y0137673D02*
X0050907Y0137673D01*
X0051609Y0136075D02*
X0011643Y0136075D01*
X0066316Y0160053D02*
X0073664Y0160053D01*
X0154651Y0148863D02*
X0229717Y0148863D01*
X0227941Y0147265D02*
X0156249Y0147265D01*
X0157848Y0145666D02*
X0227609Y0145666D01*
X0228065Y0144068D02*
X0159446Y0144068D01*
X0173833Y0129681D02*
X0174353Y0129681D01*
X0178041Y0129681D02*
X0180999Y0129681D01*
X0180620Y0128082D02*
X0180582Y0128082D01*
X0133212Y0104105D02*
X0132818Y0104105D01*
X0133212Y0102506D02*
X0131219Y0102506D01*
X0129621Y0100908D02*
X0133212Y0100908D01*
X0133212Y0089718D02*
X0011643Y0089718D01*
X0011643Y0088120D02*
X0133212Y0088120D01*
X0124923Y0070536D02*
X0124269Y0070536D01*
X0179005Y0075332D02*
X0189336Y0075332D01*
X0188507Y0076079D02*
X0188507Y0076079D01*
X0187656Y0076930D02*
X0179005Y0076930D01*
X0179005Y0078529D02*
X0186058Y0078529D01*
X0184459Y0080127D02*
X0179005Y0080127D01*
X0179005Y0081726D02*
X0182951Y0081726D01*
X0183705Y0080881D02*
X0183705Y0080881D01*
X0182641Y0083324D02*
X0179005Y0083324D01*
X0179005Y0084923D02*
X0182641Y0084923D01*
X0182641Y0086521D02*
X0179005Y0086521D01*
X0180297Y0088120D02*
X0182641Y0088120D01*
X0182641Y0089718D02*
X0181896Y0089718D01*
X0187548Y0084923D02*
X0187848Y0084923D01*
X0332255Y0166447D02*
X0342973Y0166447D01*
X0344571Y0168045D02*
X0330657Y0168045D01*
X0329058Y0169644D02*
X0346170Y0169644D01*
X0347768Y0171242D02*
X0327460Y0171242D01*
X0325861Y0172841D02*
X0349367Y0172841D01*
X0350965Y0174439D02*
X0324263Y0174439D01*
X0322664Y0176038D02*
X0352564Y0176038D01*
X0354162Y0177636D02*
X0321066Y0177636D01*
X0319467Y0179235D02*
X0355761Y0179235D01*
X0357359Y0180833D02*
X0317869Y0180833D01*
X0316270Y0182432D02*
X0358958Y0182432D01*
X0360556Y0184030D02*
X0314672Y0184030D01*
X0313073Y0185629D02*
X0362155Y0185629D01*
X0363753Y0187227D02*
X0311475Y0187227D01*
X0309876Y0188826D02*
X0365352Y0188826D01*
X0366951Y0190424D02*
X0308278Y0190424D01*
X0306679Y0192023D02*
X0368549Y0192023D01*
X0370148Y0193621D02*
X0305081Y0193621D01*
X0303482Y0195220D02*
X0371746Y0195220D01*
X0373345Y0196818D02*
X0301884Y0196818D01*
X0300285Y0198417D02*
X0374943Y0198417D01*
X0376542Y0200015D02*
X0298687Y0200015D01*
X0297088Y0201614D02*
X0378140Y0201614D01*
X0379739Y0203212D02*
X0295490Y0203212D01*
X0294595Y0204811D02*
X0381337Y0204811D01*
X0382936Y0206409D02*
X0294595Y0206409D01*
X0294595Y0208008D02*
X0384534Y0208008D01*
X0386133Y0209606D02*
X0294595Y0209606D01*
X0294595Y0211205D02*
X0387731Y0211205D01*
X0389330Y0212803D02*
X0294595Y0212803D01*
X0294595Y0214402D02*
X0390928Y0214402D01*
X0392527Y0216001D02*
X0294595Y0216001D01*
X0294595Y0217599D02*
X0394125Y0217599D01*
X0399197Y0209606D02*
X0432195Y0209606D01*
X0432228Y0208008D02*
X0397598Y0208008D01*
X0396000Y0206409D02*
X0432228Y0206409D01*
X0432228Y0204811D02*
X0394401Y0204811D01*
X0392803Y0203212D02*
X0431856Y0203212D01*
X0430257Y0201614D02*
X0391204Y0201614D01*
X0389606Y0200015D02*
X0428659Y0200015D01*
X0427060Y0198417D02*
X0388007Y0198417D01*
X0386409Y0196818D02*
X0425462Y0196818D01*
X0423863Y0195220D02*
X0384810Y0195220D01*
X0383212Y0193621D02*
X0422265Y0193621D01*
X0420666Y0192023D02*
X0381613Y0192023D01*
X0380015Y0190424D02*
X0419068Y0190424D01*
X0417469Y0188826D02*
X0378416Y0188826D01*
X0376818Y0187227D02*
X0415871Y0187227D01*
X0414272Y0185629D02*
X0375219Y0185629D01*
X0373621Y0184030D02*
X0412674Y0184030D01*
X0411075Y0182432D02*
X0372022Y0182432D01*
X0370424Y0180833D02*
X0409477Y0180833D01*
X0407878Y0179235D02*
X0368825Y0179235D01*
X0367227Y0177636D02*
X0406280Y0177636D01*
X0404681Y0176038D02*
X0365628Y0176038D01*
X0364030Y0174439D02*
X0403083Y0174439D01*
X0401484Y0172841D02*
X0362431Y0172841D01*
X0360833Y0171242D02*
X0399886Y0171242D01*
X0398287Y0169644D02*
X0359234Y0169644D01*
X0357636Y0168045D02*
X0396689Y0168045D01*
X0395090Y0166447D02*
X0356037Y0166447D01*
X0354439Y0164848D02*
X0393492Y0164848D01*
X0391893Y0163250D02*
X0352840Y0163250D01*
X0351241Y0161651D02*
X0390295Y0161651D01*
X0388696Y0160053D02*
X0349643Y0160053D01*
X0348044Y0158454D02*
X0387098Y0158454D01*
X0385499Y0156856D02*
X0346446Y0156856D01*
X0338177Y0161651D02*
X0337051Y0161651D01*
X0335453Y0163250D02*
X0339776Y0163250D01*
X0341374Y0164848D02*
X0333854Y0164848D01*
X0394323Y0131279D02*
X0474609Y0131279D01*
X0474609Y0129681D02*
X0392725Y0129681D01*
X0391126Y0128082D02*
X0474609Y0128082D01*
X0474609Y0126484D02*
X0389528Y0126484D01*
X0387929Y0124885D02*
X0474609Y0124885D01*
X0474609Y0123287D02*
X0386331Y0123287D01*
X0384732Y0121688D02*
X0474609Y0121688D01*
X0474609Y0120090D02*
X0383134Y0120090D01*
X0381535Y0118491D02*
X0474609Y0118491D01*
X0474609Y0116893D02*
X0379937Y0116893D01*
X0378552Y0115294D02*
X0474609Y0115294D01*
X0474609Y0113696D02*
X0433568Y0113696D01*
X0433778Y0113485D02*
X0432863Y0114401D01*
X0431667Y0114896D01*
X0430373Y0114896D01*
X0429177Y0114401D01*
X0428261Y0113485D01*
X0427766Y0112290D01*
X0427766Y0111859D01*
X0407004Y0091097D01*
X0406573Y0091097D01*
X0405377Y0090602D01*
X0404462Y0089686D01*
X0403967Y0088490D01*
X0403967Y0087196D01*
X0404462Y0086000D01*
X0405377Y0085085D01*
X0406573Y0084590D01*
X0407868Y0084590D01*
X0409063Y0085085D01*
X0409979Y0086000D01*
X0410474Y0087196D01*
X0410474Y0087627D01*
X0431236Y0108389D01*
X0431667Y0108389D01*
X0432863Y0108884D01*
X0433778Y0109800D01*
X0434273Y0110995D01*
X0434273Y0112290D01*
X0433778Y0113485D01*
X0434273Y0112097D02*
X0474609Y0112097D01*
X0474609Y0110499D02*
X0434068Y0110499D01*
X0432879Y0108900D02*
X0474609Y0108900D01*
X0474609Y0107302D02*
X0430149Y0107302D01*
X0428550Y0105703D02*
X0474609Y0105703D01*
X0474609Y0104105D02*
X0426952Y0104105D01*
X0425353Y0102506D02*
X0474609Y0102506D01*
X0474609Y0100908D02*
X0423755Y0100908D01*
X0422156Y0099309D02*
X0474609Y0099309D01*
X0474609Y0097711D02*
X0420558Y0097711D01*
X0418959Y0096112D02*
X0474609Y0096112D01*
X0474609Y0094514D02*
X0417361Y0094514D01*
X0415762Y0092915D02*
X0474609Y0092915D01*
X0474609Y0091317D02*
X0414164Y0091317D01*
X0412565Y0089718D02*
X0474609Y0089718D01*
X0474609Y0088120D02*
X0410967Y0088120D01*
X0410194Y0086521D02*
X0474609Y0086521D01*
X0474609Y0084923D02*
X0408671Y0084923D01*
X0405770Y0084923D02*
X0378552Y0084923D01*
X0378552Y0086521D02*
X0404247Y0086521D01*
X0403967Y0088120D02*
X0378552Y0088120D01*
X0378552Y0089718D02*
X0404494Y0089718D01*
X0407224Y0091317D02*
X0378552Y0091317D01*
X0378552Y0092915D02*
X0408822Y0092915D01*
X0410421Y0094514D02*
X0378552Y0094514D01*
X0378552Y0096112D02*
X0412020Y0096112D01*
X0413618Y0097711D02*
X0378552Y0097711D01*
X0378552Y0099309D02*
X0415217Y0099309D01*
X0416815Y0100908D02*
X0378552Y0100908D01*
X0378552Y0102506D02*
X0418414Y0102506D01*
X0420012Y0104105D02*
X0378552Y0104105D01*
X0378552Y0105703D02*
X0421611Y0105703D01*
X0423209Y0107302D02*
X0378552Y0107302D01*
X0378552Y0108900D02*
X0424808Y0108900D01*
X0426406Y0110499D02*
X0378552Y0110499D01*
X0378552Y0112097D02*
X0427766Y0112097D01*
X0428472Y0113696D02*
X0378552Y0113696D01*
X0395922Y0132878D02*
X0397860Y0132878D01*
X0401935Y0132878D02*
X0474609Y0132878D01*
X0474609Y0134476D02*
X0428642Y0134476D01*
X0430241Y0136075D02*
X0474609Y0136075D01*
X0474609Y0137673D02*
X0431839Y0137673D01*
X0433438Y0139272D02*
X0474609Y0139272D01*
X0474609Y0140870D02*
X0435036Y0140870D01*
X0436635Y0142469D02*
X0474609Y0142469D01*
X0474609Y0144068D02*
X0473084Y0144068D01*
X0470338Y0144068D02*
X0468985Y0144068D01*
X0468985Y0145666D02*
X0470338Y0145666D01*
X0470338Y0147265D02*
X0468985Y0147265D01*
X0468985Y0148863D02*
X0450338Y0148863D01*
X0450338Y0148604D02*
X0450338Y0149957D01*
X0448985Y0149957D01*
X0448985Y0148604D01*
X0443462Y0148604D01*
X0443586Y0147822D01*
X0443889Y0146889D01*
X0444334Y0146016D01*
X0444910Y0145222D01*
X0445603Y0144529D01*
X0446397Y0143953D01*
X0447270Y0143508D01*
X0448203Y0143205D01*
X0448985Y0143081D01*
X0448985Y0148604D01*
X0450338Y0148604D01*
X0455861Y0148604D01*
X0455737Y0147822D01*
X0455434Y0146889D01*
X0454989Y0146016D01*
X0454413Y0145222D01*
X0453719Y0144529D01*
X0452926Y0143953D01*
X0452053Y0143508D01*
X0451120Y0143205D01*
X0450338Y0143081D01*
X0450338Y0148604D01*
X0450338Y0147265D02*
X0448985Y0147265D01*
X0448985Y0148863D02*
X0443029Y0148863D01*
X0443767Y0147265D02*
X0441430Y0147265D01*
X0439832Y0145666D02*
X0444588Y0145666D01*
X0446239Y0144068D02*
X0438233Y0144068D01*
X0448985Y0144068D02*
X0450338Y0144068D01*
X0450338Y0145666D02*
X0448985Y0145666D01*
X0453084Y0144068D02*
X0466239Y0144068D01*
X0464588Y0145666D02*
X0454735Y0145666D01*
X0455556Y0147265D02*
X0463767Y0147265D01*
X0463542Y0150462D02*
X0455781Y0150462D01*
X0455737Y0150739D02*
X0455434Y0151671D01*
X0454989Y0152545D01*
X0454413Y0153338D01*
X0453719Y0154032D01*
X0452926Y0154608D01*
X0452053Y0155053D01*
X0451120Y0155356D01*
X0450338Y0155480D01*
X0450338Y0149957D01*
X0455861Y0149957D01*
X0455737Y0150739D01*
X0455236Y0152060D02*
X0464087Y0152060D01*
X0465230Y0153659D02*
X0462017Y0153659D01*
X0464258Y0155257D02*
X0467898Y0155257D01*
X0468985Y0155257D02*
X0470338Y0155257D01*
X0471425Y0155257D02*
X0474609Y0155257D01*
X0474609Y0153659D02*
X0474092Y0153659D01*
X0474609Y0156856D02*
X0465255Y0156856D01*
X0465757Y0158454D02*
X0474609Y0158454D01*
X0474609Y0160053D02*
X0465757Y0160053D01*
X0465277Y0161651D02*
X0474609Y0161651D01*
X0474609Y0163250D02*
X0471259Y0163250D01*
X0470338Y0163250D02*
X0468985Y0163250D01*
X0468064Y0163250D02*
X0464312Y0163250D01*
X0465284Y0164848D02*
X0462147Y0164848D01*
X0464114Y0166447D02*
X0460002Y0166447D01*
X0461349Y0168045D02*
X0463550Y0168045D01*
X0461544Y0169644D02*
X0468985Y0169644D01*
X0468985Y0171242D02*
X0470338Y0171242D01*
X0470338Y0172841D02*
X0468985Y0172841D01*
X0468985Y0174439D02*
X0470338Y0174439D01*
X0473158Y0174439D02*
X0474609Y0174439D01*
X0474609Y0176038D02*
X0461544Y0176038D01*
X0461544Y0177636D02*
X0474609Y0177636D01*
X0474609Y0179235D02*
X0461544Y0179235D01*
X0461544Y0180833D02*
X0474609Y0180833D01*
X0474609Y0182432D02*
X0461544Y0182432D01*
X0461544Y0184030D02*
X0474609Y0184030D01*
X0474609Y0185629D02*
X0461544Y0185629D01*
X0461544Y0187227D02*
X0474609Y0187227D01*
X0474609Y0188826D02*
X0461544Y0188826D01*
X0461544Y0190424D02*
X0468356Y0190424D01*
X0468985Y0190424D02*
X0470338Y0190424D01*
X0470967Y0190424D02*
X0474609Y0190424D01*
X0474609Y0192023D02*
X0473969Y0192023D01*
X0470338Y0192023D02*
X0468985Y0192023D01*
X0468985Y0193621D02*
X0470338Y0193621D01*
X0470338Y0195220D02*
X0468985Y0195220D01*
X0468985Y0196818D02*
X0461544Y0196818D01*
X0461544Y0195220D02*
X0463561Y0195220D01*
X0464149Y0193621D02*
X0461544Y0193621D01*
X0461544Y0192023D02*
X0465354Y0192023D01*
X0456637Y0192023D02*
X0453969Y0192023D01*
X0453719Y0191773D02*
X0454413Y0192466D01*
X0454989Y0193260D01*
X0455434Y0194133D01*
X0455737Y0195066D01*
X0455861Y0195848D01*
X0450338Y0195848D01*
X0450338Y0197201D01*
X0448985Y0197201D01*
X0448985Y0202724D01*
X0448624Y0202667D01*
X0453566Y0207609D01*
X0453566Y0205312D01*
X0454494Y0203072D01*
X0456209Y0201357D01*
X0456637Y0201180D01*
X0456637Y0170021D01*
X0455220Y0168604D01*
X0450338Y0168604D01*
X0450338Y0169957D01*
X0448985Y0169957D01*
X0448985Y0175480D01*
X0448203Y0175356D01*
X0447270Y0175053D01*
X0446397Y0174608D01*
X0445603Y0174032D01*
X0444910Y0173338D01*
X0444334Y0172545D01*
X0443889Y0171671D01*
X0443586Y0170739D01*
X0443462Y0169957D01*
X0448985Y0169957D01*
X0448985Y0168604D01*
X0443462Y0168604D01*
X0443586Y0167822D01*
X0443889Y0166889D01*
X0444334Y0166016D01*
X0444910Y0165222D01*
X0445603Y0164529D01*
X0446397Y0163953D01*
X0447139Y0163574D01*
X0439551Y0155986D01*
X0405884Y0155986D01*
X0405579Y0156290D01*
X0404383Y0156786D01*
X0403353Y0156786D01*
X0403466Y0157058D01*
X0403466Y0158353D01*
X0402971Y0159548D01*
X0402056Y0160464D01*
X0401690Y0160615D01*
X0422272Y0181197D01*
X0426626Y0181197D01*
X0427528Y0181570D01*
X0428218Y0182261D01*
X0443519Y0197562D01*
X0443462Y0197201D01*
X0448985Y0197201D01*
X0448985Y0195848D01*
X0450338Y0195848D01*
X0450338Y0190325D01*
X0451120Y0190449D01*
X0452053Y0190752D01*
X0452926Y0191197D01*
X0453719Y0191773D01*
X0455173Y0193621D02*
X0456637Y0193621D01*
X0456637Y0195220D02*
X0455762Y0195220D01*
X0456637Y0196818D02*
X0450338Y0196818D01*
X0450338Y0197201D02*
X0455861Y0197201D01*
X0455737Y0197983D01*
X0455434Y0198916D01*
X0454989Y0199789D01*
X0454413Y0200582D01*
X0453719Y0201276D01*
X0452926Y0201852D01*
X0452053Y0202297D01*
X0451120Y0202600D01*
X0450338Y0202724D01*
X0450338Y0197201D01*
X0450338Y0198417D02*
X0448985Y0198417D01*
X0448985Y0200015D02*
X0450338Y0200015D01*
X0450338Y0201614D02*
X0448985Y0201614D01*
X0449170Y0203212D02*
X0454436Y0203212D01*
X0453774Y0204811D02*
X0450768Y0204811D01*
X0452367Y0206409D02*
X0453566Y0206409D01*
X0453254Y0201614D02*
X0455952Y0201614D01*
X0456637Y0200015D02*
X0454825Y0200015D01*
X0455596Y0198417D02*
X0456637Y0198417D01*
X0461544Y0198417D02*
X0463727Y0198417D01*
X0464498Y0200015D02*
X0461544Y0200015D01*
X0463371Y0201614D02*
X0466069Y0201614D01*
X0464887Y0203212D02*
X0474609Y0203212D01*
X0474609Y0201614D02*
X0473254Y0201614D01*
X0470338Y0201614D02*
X0468985Y0201614D01*
X0468985Y0200015D02*
X0470338Y0200015D01*
X0470338Y0198417D02*
X0468985Y0198417D01*
X0465549Y0204811D02*
X0474609Y0204811D01*
X0474609Y0206409D02*
X0465757Y0206409D01*
X0465644Y0208008D02*
X0474609Y0208008D01*
X0474609Y0209606D02*
X0464982Y0209606D01*
X0463601Y0211205D02*
X0466385Y0211205D01*
X0464665Y0212803D02*
X0458742Y0212803D01*
X0459103Y0214402D02*
X0463801Y0214402D01*
X0463525Y0217599D02*
X0459103Y0217599D01*
X0459103Y0216001D02*
X0468985Y0216001D01*
X0468985Y0217599D02*
X0470338Y0217599D01*
X0470338Y0219198D02*
X0468985Y0219198D01*
X0468985Y0220796D02*
X0470338Y0220796D01*
X0470338Y0222395D02*
X0468985Y0222395D01*
X0467570Y0222395D02*
X0459103Y0222395D01*
X0459103Y0223993D02*
X0474609Y0223993D01*
X0474609Y0222395D02*
X0471753Y0222395D01*
X0474199Y0220796D02*
X0474609Y0220796D01*
X0474609Y0225592D02*
X0459103Y0225592D01*
X0459103Y0227190D02*
X0474609Y0227190D01*
X0474609Y0228789D02*
X0458808Y0228789D01*
X0457320Y0230387D02*
X0474609Y0230387D01*
X0474609Y0231986D02*
X0455721Y0231986D01*
X0454123Y0233584D02*
X0474609Y0233584D01*
X0474609Y0235183D02*
X0452524Y0235183D01*
X0450926Y0236781D02*
X0474609Y0236781D01*
X0474609Y0238380D02*
X0449327Y0238380D01*
X0447729Y0239978D02*
X0474609Y0239978D01*
X0474609Y0241577D02*
X0446130Y0241577D01*
X0444532Y0243175D02*
X0474609Y0243175D01*
X0474609Y0244774D02*
X0442933Y0244774D01*
X0441012Y0246372D02*
X0474609Y0246372D01*
X0474609Y0247971D02*
X0011643Y0247971D01*
X0011643Y0249569D02*
X0474609Y0249569D01*
X0474609Y0251168D02*
X0011643Y0251168D01*
X0011643Y0252766D02*
X0474609Y0252766D01*
X0474609Y0254365D02*
X0011643Y0254365D01*
X0011643Y0255963D02*
X0014087Y0255963D01*
X0011683Y0257562D02*
X0011643Y0257562D01*
X0023346Y0255963D02*
X0462906Y0255963D01*
X0460502Y0257562D02*
X0025750Y0257562D01*
X0027299Y0259160D02*
X0458953Y0259160D01*
X0458030Y0260759D02*
X0028222Y0260759D01*
X0028871Y0262357D02*
X0457381Y0262357D01*
X0456953Y0263956D02*
X0029299Y0263956D01*
X0029359Y0265554D02*
X0456893Y0265554D01*
X0456939Y0267153D02*
X0029313Y0267153D01*
X0028885Y0268751D02*
X0457367Y0268751D01*
X0458001Y0270350D02*
X0028251Y0270350D01*
X0027328Y0271948D02*
X0458924Y0271948D01*
X0474569Y0257562D02*
X0474609Y0257562D01*
X0474609Y0255963D02*
X0472165Y0255963D01*
X0442387Y0238380D02*
X0441531Y0238380D01*
X0443986Y0236781D02*
X0425513Y0236781D01*
X0425095Y0235183D02*
X0445585Y0235183D01*
X0447183Y0233584D02*
X0422474Y0233584D01*
X0420876Y0231986D02*
X0448782Y0231986D01*
X0450380Y0230387D02*
X0419277Y0230387D01*
X0417679Y0228789D02*
X0451979Y0228789D01*
X0453577Y0227190D02*
X0416080Y0227190D01*
X0415587Y0225592D02*
X0444054Y0225592D01*
X0443483Y0223993D02*
X0291239Y0223993D01*
X0293630Y0222395D02*
X0441885Y0222395D01*
X0440286Y0220796D02*
X0294446Y0220796D01*
X0294595Y0219198D02*
X0438688Y0219198D01*
X0437089Y0217599D02*
X0422048Y0217599D01*
X0423052Y0216001D02*
X0435491Y0216001D01*
X0432761Y0214402D02*
X0423335Y0214402D01*
X0423055Y0212803D02*
X0431608Y0212803D01*
X0431428Y0211205D02*
X0422055Y0211205D01*
X0437135Y0209574D02*
X0437135Y0202080D01*
X0436761Y0201178D01*
X0436071Y0200488D01*
X0421687Y0186104D01*
X0425121Y0186104D01*
X0450338Y0211320D01*
X0450338Y0215848D01*
X0448985Y0215848D01*
X0448985Y0210325D01*
X0448203Y0210449D01*
X0447270Y0210752D01*
X0446397Y0211197D01*
X0445603Y0211773D01*
X0444910Y0212466D01*
X0444334Y0213260D01*
X0443889Y0214133D01*
X0443586Y0215066D01*
X0443462Y0215848D01*
X0448985Y0215848D01*
X0448985Y0217201D01*
X0443630Y0217201D01*
X0437935Y0211505D01*
X0437935Y0211074D01*
X0437439Y0209878D01*
X0437135Y0209574D01*
X0437168Y0209606D02*
X0448624Y0209606D01*
X0448985Y0211205D02*
X0450223Y0211205D01*
X0450338Y0212803D02*
X0448985Y0212803D01*
X0448985Y0214402D02*
X0450338Y0214402D01*
X0448985Y0216001D02*
X0442430Y0216001D01*
X0443801Y0214402D02*
X0440832Y0214402D01*
X0439233Y0212803D02*
X0444665Y0212803D01*
X0446385Y0211205D02*
X0437935Y0211205D01*
X0437135Y0208008D02*
X0447026Y0208008D01*
X0445427Y0206409D02*
X0437135Y0206409D01*
X0437135Y0204811D02*
X0443829Y0204811D01*
X0442230Y0203212D02*
X0437135Y0203212D01*
X0436942Y0201614D02*
X0440631Y0201614D01*
X0439033Y0200015D02*
X0435599Y0200015D01*
X0434000Y0198417D02*
X0437434Y0198417D01*
X0435836Y0196818D02*
X0432402Y0196818D01*
X0430803Y0195220D02*
X0434237Y0195220D01*
X0432639Y0193621D02*
X0429205Y0193621D01*
X0427606Y0192023D02*
X0431040Y0192023D01*
X0429442Y0190424D02*
X0426008Y0190424D01*
X0424409Y0188826D02*
X0427843Y0188826D01*
X0426245Y0187227D02*
X0422811Y0187227D01*
X0428389Y0182432D02*
X0456637Y0182432D01*
X0456637Y0184030D02*
X0429988Y0184030D01*
X0431586Y0185629D02*
X0456637Y0185629D01*
X0456637Y0187227D02*
X0433185Y0187227D01*
X0434783Y0188826D02*
X0456637Y0188826D01*
X0456637Y0190424D02*
X0450967Y0190424D01*
X0450338Y0190424D02*
X0448985Y0190424D01*
X0448985Y0190325D02*
X0448985Y0195848D01*
X0443462Y0195848D01*
X0443586Y0195066D01*
X0443889Y0194133D01*
X0444334Y0193260D01*
X0444910Y0192466D01*
X0445603Y0191773D01*
X0446397Y0191197D01*
X0447270Y0190752D01*
X0448203Y0190449D01*
X0448985Y0190325D01*
X0448356Y0190424D02*
X0436382Y0190424D01*
X0437980Y0192023D02*
X0445354Y0192023D01*
X0444149Y0193621D02*
X0439579Y0193621D01*
X0441177Y0195220D02*
X0443561Y0195220D01*
X0442776Y0196818D02*
X0448985Y0196818D01*
X0448985Y0195220D02*
X0450338Y0195220D01*
X0450338Y0193621D02*
X0448985Y0193621D01*
X0448985Y0192023D02*
X0450338Y0192023D01*
X0456637Y0180833D02*
X0421909Y0180833D01*
X0420310Y0179235D02*
X0456637Y0179235D01*
X0456637Y0177636D02*
X0418712Y0177636D01*
X0417113Y0176038D02*
X0456637Y0176038D01*
X0456637Y0174439D02*
X0453158Y0174439D01*
X0452926Y0174608D02*
X0452053Y0175053D01*
X0451120Y0175356D01*
X0450338Y0175480D01*
X0450338Y0169957D01*
X0455861Y0169957D01*
X0455737Y0170739D01*
X0455434Y0171671D01*
X0454989Y0172545D01*
X0454413Y0173338D01*
X0453719Y0174032D01*
X0452926Y0174608D01*
X0454774Y0172841D02*
X0456637Y0172841D01*
X0456637Y0171242D02*
X0455574Y0171242D01*
X0456260Y0169644D02*
X0450338Y0169644D01*
X0448985Y0169644D02*
X0410719Y0169644D01*
X0412318Y0171242D02*
X0443749Y0171242D01*
X0444549Y0172841D02*
X0413916Y0172841D01*
X0415515Y0174439D02*
X0446164Y0174439D01*
X0448985Y0174439D02*
X0450338Y0174439D01*
X0450338Y0172841D02*
X0448985Y0172841D01*
X0448985Y0171242D02*
X0450338Y0171242D01*
X0443550Y0168045D02*
X0409121Y0168045D01*
X0407522Y0166447D02*
X0444114Y0166447D01*
X0445284Y0164848D02*
X0405923Y0164848D01*
X0404325Y0163250D02*
X0446814Y0163250D01*
X0445216Y0161651D02*
X0402726Y0161651D01*
X0402467Y0160053D02*
X0443617Y0160053D01*
X0442019Y0158454D02*
X0403424Y0158454D01*
X0403382Y0156856D02*
X0440420Y0156856D01*
X0448985Y0153659D02*
X0450338Y0153659D01*
X0450338Y0155257D02*
X0449423Y0155257D01*
X0451425Y0155257D02*
X0455065Y0155257D01*
X0454092Y0153659D02*
X0457306Y0153659D01*
X0450338Y0152060D02*
X0448985Y0152060D01*
X0448985Y0150462D02*
X0450338Y0150462D01*
X0468985Y0150462D02*
X0470338Y0150462D01*
X0470338Y0152060D02*
X0468985Y0152060D01*
X0468985Y0153659D02*
X0470338Y0153659D01*
X0470338Y0164848D02*
X0468985Y0164848D01*
X0468985Y0166447D02*
X0470338Y0166447D01*
X0470338Y0168045D02*
X0468985Y0168045D01*
X0474039Y0164848D02*
X0474609Y0164848D01*
X0464549Y0172841D02*
X0461544Y0172841D01*
X0461544Y0174439D02*
X0466164Y0174439D01*
X0463749Y0171242D02*
X0461544Y0171242D01*
X0468985Y0211205D02*
X0470338Y0211205D01*
X0470338Y0212803D02*
X0468985Y0212803D01*
X0468985Y0214402D02*
X0470338Y0214402D01*
X0472937Y0211205D02*
X0474609Y0211205D01*
X0464032Y0219198D02*
X0459103Y0219198D01*
X0459103Y0220796D02*
X0465124Y0220796D01*
X0454196Y0222395D02*
X0451753Y0222395D01*
X0450338Y0222395D02*
X0449773Y0222395D01*
X0450139Y0223993D02*
X0454196Y0223993D01*
X0454196Y0225592D02*
X0449718Y0225592D01*
X0450338Y0220796D02*
X0448985Y0220796D01*
X0448985Y0219198D02*
X0450338Y0219198D01*
X0450338Y0217599D02*
X0448985Y0217599D01*
X0415535Y0233584D02*
X0011643Y0233584D01*
X0011643Y0231986D02*
X0413936Y0231986D01*
X0417133Y0235183D02*
X0011643Y0235183D01*
X0011643Y0236781D02*
X0418732Y0236781D01*
X0419323Y0243175D02*
X0317493Y0243175D01*
X0313877Y0243175D02*
X0011643Y0243175D01*
X0011643Y0241577D02*
X0312650Y0241577D01*
X0312431Y0239978D02*
X0011643Y0239978D01*
X0011643Y0238380D02*
X0313107Y0238380D01*
X0419249Y0244774D02*
X0011643Y0244774D01*
X0011643Y0246372D02*
X0420184Y0246372D01*
X0378964Y0083324D02*
X0474609Y0083324D01*
X0474609Y0081726D02*
X0379352Y0081726D01*
X0378952Y0080127D02*
X0474609Y0080127D01*
M02*
