G75*
%MOIN*%
%OFA0B0*%
%FSLAX25Y25*%
%IPPOS*%
%LPD*%
%AMOC8*
5,1,8,0,0,1.08239X$1,22.5*
%
%ADD10C,0.00000*%
D10*
X0006906Y0001800D02*
X0006906Y0277391D01*
X0479346Y0277391D01*
X0479346Y0001800D01*
X0006906Y0001800D01*
X0012811Y0013611D02*
X0012813Y0013764D01*
X0012819Y0013918D01*
X0012829Y0014071D01*
X0012843Y0014223D01*
X0012861Y0014376D01*
X0012883Y0014527D01*
X0012908Y0014678D01*
X0012938Y0014829D01*
X0012972Y0014979D01*
X0013009Y0015127D01*
X0013050Y0015275D01*
X0013095Y0015421D01*
X0013144Y0015567D01*
X0013197Y0015711D01*
X0013253Y0015853D01*
X0013313Y0015994D01*
X0013377Y0016134D01*
X0013444Y0016272D01*
X0013515Y0016408D01*
X0013590Y0016542D01*
X0013667Y0016674D01*
X0013749Y0016804D01*
X0013833Y0016932D01*
X0013921Y0017058D01*
X0014012Y0017181D01*
X0014106Y0017302D01*
X0014204Y0017420D01*
X0014304Y0017536D01*
X0014408Y0017649D01*
X0014514Y0017760D01*
X0014623Y0017868D01*
X0014735Y0017973D01*
X0014849Y0018074D01*
X0014967Y0018173D01*
X0015086Y0018269D01*
X0015208Y0018362D01*
X0015333Y0018451D01*
X0015460Y0018538D01*
X0015589Y0018620D01*
X0015720Y0018700D01*
X0015853Y0018776D01*
X0015988Y0018849D01*
X0016125Y0018918D01*
X0016264Y0018983D01*
X0016404Y0019045D01*
X0016546Y0019103D01*
X0016689Y0019158D01*
X0016834Y0019209D01*
X0016980Y0019256D01*
X0017127Y0019299D01*
X0017275Y0019338D01*
X0017424Y0019374D01*
X0017574Y0019405D01*
X0017725Y0019433D01*
X0017876Y0019457D01*
X0018029Y0019477D01*
X0018181Y0019493D01*
X0018334Y0019505D01*
X0018487Y0019513D01*
X0018640Y0019517D01*
X0018794Y0019517D01*
X0018947Y0019513D01*
X0019100Y0019505D01*
X0019253Y0019493D01*
X0019405Y0019477D01*
X0019558Y0019457D01*
X0019709Y0019433D01*
X0019860Y0019405D01*
X0020010Y0019374D01*
X0020159Y0019338D01*
X0020307Y0019299D01*
X0020454Y0019256D01*
X0020600Y0019209D01*
X0020745Y0019158D01*
X0020888Y0019103D01*
X0021030Y0019045D01*
X0021170Y0018983D01*
X0021309Y0018918D01*
X0021446Y0018849D01*
X0021581Y0018776D01*
X0021714Y0018700D01*
X0021845Y0018620D01*
X0021974Y0018538D01*
X0022101Y0018451D01*
X0022226Y0018362D01*
X0022348Y0018269D01*
X0022467Y0018173D01*
X0022585Y0018074D01*
X0022699Y0017973D01*
X0022811Y0017868D01*
X0022920Y0017760D01*
X0023026Y0017649D01*
X0023130Y0017536D01*
X0023230Y0017420D01*
X0023328Y0017302D01*
X0023422Y0017181D01*
X0023513Y0017058D01*
X0023601Y0016932D01*
X0023685Y0016804D01*
X0023767Y0016674D01*
X0023844Y0016542D01*
X0023919Y0016408D01*
X0023990Y0016272D01*
X0024057Y0016134D01*
X0024121Y0015994D01*
X0024181Y0015853D01*
X0024237Y0015711D01*
X0024290Y0015567D01*
X0024339Y0015421D01*
X0024384Y0015275D01*
X0024425Y0015127D01*
X0024462Y0014979D01*
X0024496Y0014829D01*
X0024526Y0014678D01*
X0024551Y0014527D01*
X0024573Y0014376D01*
X0024591Y0014223D01*
X0024605Y0014071D01*
X0024615Y0013918D01*
X0024621Y0013764D01*
X0024623Y0013611D01*
X0024621Y0013458D01*
X0024615Y0013304D01*
X0024605Y0013151D01*
X0024591Y0012999D01*
X0024573Y0012846D01*
X0024551Y0012695D01*
X0024526Y0012544D01*
X0024496Y0012393D01*
X0024462Y0012243D01*
X0024425Y0012095D01*
X0024384Y0011947D01*
X0024339Y0011801D01*
X0024290Y0011655D01*
X0024237Y0011511D01*
X0024181Y0011369D01*
X0024121Y0011228D01*
X0024057Y0011088D01*
X0023990Y0010950D01*
X0023919Y0010814D01*
X0023844Y0010680D01*
X0023767Y0010548D01*
X0023685Y0010418D01*
X0023601Y0010290D01*
X0023513Y0010164D01*
X0023422Y0010041D01*
X0023328Y0009920D01*
X0023230Y0009802D01*
X0023130Y0009686D01*
X0023026Y0009573D01*
X0022920Y0009462D01*
X0022811Y0009354D01*
X0022699Y0009249D01*
X0022585Y0009148D01*
X0022467Y0009049D01*
X0022348Y0008953D01*
X0022226Y0008860D01*
X0022101Y0008771D01*
X0021974Y0008684D01*
X0021845Y0008602D01*
X0021714Y0008522D01*
X0021581Y0008446D01*
X0021446Y0008373D01*
X0021309Y0008304D01*
X0021170Y0008239D01*
X0021030Y0008177D01*
X0020888Y0008119D01*
X0020745Y0008064D01*
X0020600Y0008013D01*
X0020454Y0007966D01*
X0020307Y0007923D01*
X0020159Y0007884D01*
X0020010Y0007848D01*
X0019860Y0007817D01*
X0019709Y0007789D01*
X0019558Y0007765D01*
X0019405Y0007745D01*
X0019253Y0007729D01*
X0019100Y0007717D01*
X0018947Y0007709D01*
X0018794Y0007705D01*
X0018640Y0007705D01*
X0018487Y0007709D01*
X0018334Y0007717D01*
X0018181Y0007729D01*
X0018029Y0007745D01*
X0017876Y0007765D01*
X0017725Y0007789D01*
X0017574Y0007817D01*
X0017424Y0007848D01*
X0017275Y0007884D01*
X0017127Y0007923D01*
X0016980Y0007966D01*
X0016834Y0008013D01*
X0016689Y0008064D01*
X0016546Y0008119D01*
X0016404Y0008177D01*
X0016264Y0008239D01*
X0016125Y0008304D01*
X0015988Y0008373D01*
X0015853Y0008446D01*
X0015720Y0008522D01*
X0015589Y0008602D01*
X0015460Y0008684D01*
X0015333Y0008771D01*
X0015208Y0008860D01*
X0015086Y0008953D01*
X0014967Y0009049D01*
X0014849Y0009148D01*
X0014735Y0009249D01*
X0014623Y0009354D01*
X0014514Y0009462D01*
X0014408Y0009573D01*
X0014304Y0009686D01*
X0014204Y0009802D01*
X0014106Y0009920D01*
X0014012Y0010041D01*
X0013921Y0010164D01*
X0013833Y0010290D01*
X0013749Y0010418D01*
X0013667Y0010548D01*
X0013590Y0010680D01*
X0013515Y0010814D01*
X0013444Y0010950D01*
X0013377Y0011088D01*
X0013313Y0011228D01*
X0013253Y0011369D01*
X0013197Y0011511D01*
X0013144Y0011655D01*
X0013095Y0011801D01*
X0013050Y0011947D01*
X0013009Y0012095D01*
X0012972Y0012243D01*
X0012938Y0012393D01*
X0012908Y0012544D01*
X0012883Y0012695D01*
X0012861Y0012846D01*
X0012843Y0012999D01*
X0012829Y0013151D01*
X0012819Y0013304D01*
X0012813Y0013458D01*
X0012811Y0013611D01*
X0461629Y0013611D02*
X0461631Y0013764D01*
X0461637Y0013918D01*
X0461647Y0014071D01*
X0461661Y0014223D01*
X0461679Y0014376D01*
X0461701Y0014527D01*
X0461726Y0014678D01*
X0461756Y0014829D01*
X0461790Y0014979D01*
X0461827Y0015127D01*
X0461868Y0015275D01*
X0461913Y0015421D01*
X0461962Y0015567D01*
X0462015Y0015711D01*
X0462071Y0015853D01*
X0462131Y0015994D01*
X0462195Y0016134D01*
X0462262Y0016272D01*
X0462333Y0016408D01*
X0462408Y0016542D01*
X0462485Y0016674D01*
X0462567Y0016804D01*
X0462651Y0016932D01*
X0462739Y0017058D01*
X0462830Y0017181D01*
X0462924Y0017302D01*
X0463022Y0017420D01*
X0463122Y0017536D01*
X0463226Y0017649D01*
X0463332Y0017760D01*
X0463441Y0017868D01*
X0463553Y0017973D01*
X0463667Y0018074D01*
X0463785Y0018173D01*
X0463904Y0018269D01*
X0464026Y0018362D01*
X0464151Y0018451D01*
X0464278Y0018538D01*
X0464407Y0018620D01*
X0464538Y0018700D01*
X0464671Y0018776D01*
X0464806Y0018849D01*
X0464943Y0018918D01*
X0465082Y0018983D01*
X0465222Y0019045D01*
X0465364Y0019103D01*
X0465507Y0019158D01*
X0465652Y0019209D01*
X0465798Y0019256D01*
X0465945Y0019299D01*
X0466093Y0019338D01*
X0466242Y0019374D01*
X0466392Y0019405D01*
X0466543Y0019433D01*
X0466694Y0019457D01*
X0466847Y0019477D01*
X0466999Y0019493D01*
X0467152Y0019505D01*
X0467305Y0019513D01*
X0467458Y0019517D01*
X0467612Y0019517D01*
X0467765Y0019513D01*
X0467918Y0019505D01*
X0468071Y0019493D01*
X0468223Y0019477D01*
X0468376Y0019457D01*
X0468527Y0019433D01*
X0468678Y0019405D01*
X0468828Y0019374D01*
X0468977Y0019338D01*
X0469125Y0019299D01*
X0469272Y0019256D01*
X0469418Y0019209D01*
X0469563Y0019158D01*
X0469706Y0019103D01*
X0469848Y0019045D01*
X0469988Y0018983D01*
X0470127Y0018918D01*
X0470264Y0018849D01*
X0470399Y0018776D01*
X0470532Y0018700D01*
X0470663Y0018620D01*
X0470792Y0018538D01*
X0470919Y0018451D01*
X0471044Y0018362D01*
X0471166Y0018269D01*
X0471285Y0018173D01*
X0471403Y0018074D01*
X0471517Y0017973D01*
X0471629Y0017868D01*
X0471738Y0017760D01*
X0471844Y0017649D01*
X0471948Y0017536D01*
X0472048Y0017420D01*
X0472146Y0017302D01*
X0472240Y0017181D01*
X0472331Y0017058D01*
X0472419Y0016932D01*
X0472503Y0016804D01*
X0472585Y0016674D01*
X0472662Y0016542D01*
X0472737Y0016408D01*
X0472808Y0016272D01*
X0472875Y0016134D01*
X0472939Y0015994D01*
X0472999Y0015853D01*
X0473055Y0015711D01*
X0473108Y0015567D01*
X0473157Y0015421D01*
X0473202Y0015275D01*
X0473243Y0015127D01*
X0473280Y0014979D01*
X0473314Y0014829D01*
X0473344Y0014678D01*
X0473369Y0014527D01*
X0473391Y0014376D01*
X0473409Y0014223D01*
X0473423Y0014071D01*
X0473433Y0013918D01*
X0473439Y0013764D01*
X0473441Y0013611D01*
X0473439Y0013458D01*
X0473433Y0013304D01*
X0473423Y0013151D01*
X0473409Y0012999D01*
X0473391Y0012846D01*
X0473369Y0012695D01*
X0473344Y0012544D01*
X0473314Y0012393D01*
X0473280Y0012243D01*
X0473243Y0012095D01*
X0473202Y0011947D01*
X0473157Y0011801D01*
X0473108Y0011655D01*
X0473055Y0011511D01*
X0472999Y0011369D01*
X0472939Y0011228D01*
X0472875Y0011088D01*
X0472808Y0010950D01*
X0472737Y0010814D01*
X0472662Y0010680D01*
X0472585Y0010548D01*
X0472503Y0010418D01*
X0472419Y0010290D01*
X0472331Y0010164D01*
X0472240Y0010041D01*
X0472146Y0009920D01*
X0472048Y0009802D01*
X0471948Y0009686D01*
X0471844Y0009573D01*
X0471738Y0009462D01*
X0471629Y0009354D01*
X0471517Y0009249D01*
X0471403Y0009148D01*
X0471285Y0009049D01*
X0471166Y0008953D01*
X0471044Y0008860D01*
X0470919Y0008771D01*
X0470792Y0008684D01*
X0470663Y0008602D01*
X0470532Y0008522D01*
X0470399Y0008446D01*
X0470264Y0008373D01*
X0470127Y0008304D01*
X0469988Y0008239D01*
X0469848Y0008177D01*
X0469706Y0008119D01*
X0469563Y0008064D01*
X0469418Y0008013D01*
X0469272Y0007966D01*
X0469125Y0007923D01*
X0468977Y0007884D01*
X0468828Y0007848D01*
X0468678Y0007817D01*
X0468527Y0007789D01*
X0468376Y0007765D01*
X0468223Y0007745D01*
X0468071Y0007729D01*
X0467918Y0007717D01*
X0467765Y0007709D01*
X0467612Y0007705D01*
X0467458Y0007705D01*
X0467305Y0007709D01*
X0467152Y0007717D01*
X0466999Y0007729D01*
X0466847Y0007745D01*
X0466694Y0007765D01*
X0466543Y0007789D01*
X0466392Y0007817D01*
X0466242Y0007848D01*
X0466093Y0007884D01*
X0465945Y0007923D01*
X0465798Y0007966D01*
X0465652Y0008013D01*
X0465507Y0008064D01*
X0465364Y0008119D01*
X0465222Y0008177D01*
X0465082Y0008239D01*
X0464943Y0008304D01*
X0464806Y0008373D01*
X0464671Y0008446D01*
X0464538Y0008522D01*
X0464407Y0008602D01*
X0464278Y0008684D01*
X0464151Y0008771D01*
X0464026Y0008860D01*
X0463904Y0008953D01*
X0463785Y0009049D01*
X0463667Y0009148D01*
X0463553Y0009249D01*
X0463441Y0009354D01*
X0463332Y0009462D01*
X0463226Y0009573D01*
X0463122Y0009686D01*
X0463022Y0009802D01*
X0462924Y0009920D01*
X0462830Y0010041D01*
X0462739Y0010164D01*
X0462651Y0010290D01*
X0462567Y0010418D01*
X0462485Y0010548D01*
X0462408Y0010680D01*
X0462333Y0010814D01*
X0462262Y0010950D01*
X0462195Y0011088D01*
X0462131Y0011228D01*
X0462071Y0011369D01*
X0462015Y0011511D01*
X0461962Y0011655D01*
X0461913Y0011801D01*
X0461868Y0011947D01*
X0461827Y0012095D01*
X0461790Y0012243D01*
X0461756Y0012393D01*
X0461726Y0012544D01*
X0461701Y0012695D01*
X0461679Y0012846D01*
X0461661Y0012999D01*
X0461647Y0013151D01*
X0461637Y0013304D01*
X0461631Y0013458D01*
X0461629Y0013611D01*
X0461629Y0265580D02*
X0461631Y0265733D01*
X0461637Y0265887D01*
X0461647Y0266040D01*
X0461661Y0266192D01*
X0461679Y0266345D01*
X0461701Y0266496D01*
X0461726Y0266647D01*
X0461756Y0266798D01*
X0461790Y0266948D01*
X0461827Y0267096D01*
X0461868Y0267244D01*
X0461913Y0267390D01*
X0461962Y0267536D01*
X0462015Y0267680D01*
X0462071Y0267822D01*
X0462131Y0267963D01*
X0462195Y0268103D01*
X0462262Y0268241D01*
X0462333Y0268377D01*
X0462408Y0268511D01*
X0462485Y0268643D01*
X0462567Y0268773D01*
X0462651Y0268901D01*
X0462739Y0269027D01*
X0462830Y0269150D01*
X0462924Y0269271D01*
X0463022Y0269389D01*
X0463122Y0269505D01*
X0463226Y0269618D01*
X0463332Y0269729D01*
X0463441Y0269837D01*
X0463553Y0269942D01*
X0463667Y0270043D01*
X0463785Y0270142D01*
X0463904Y0270238D01*
X0464026Y0270331D01*
X0464151Y0270420D01*
X0464278Y0270507D01*
X0464407Y0270589D01*
X0464538Y0270669D01*
X0464671Y0270745D01*
X0464806Y0270818D01*
X0464943Y0270887D01*
X0465082Y0270952D01*
X0465222Y0271014D01*
X0465364Y0271072D01*
X0465507Y0271127D01*
X0465652Y0271178D01*
X0465798Y0271225D01*
X0465945Y0271268D01*
X0466093Y0271307D01*
X0466242Y0271343D01*
X0466392Y0271374D01*
X0466543Y0271402D01*
X0466694Y0271426D01*
X0466847Y0271446D01*
X0466999Y0271462D01*
X0467152Y0271474D01*
X0467305Y0271482D01*
X0467458Y0271486D01*
X0467612Y0271486D01*
X0467765Y0271482D01*
X0467918Y0271474D01*
X0468071Y0271462D01*
X0468223Y0271446D01*
X0468376Y0271426D01*
X0468527Y0271402D01*
X0468678Y0271374D01*
X0468828Y0271343D01*
X0468977Y0271307D01*
X0469125Y0271268D01*
X0469272Y0271225D01*
X0469418Y0271178D01*
X0469563Y0271127D01*
X0469706Y0271072D01*
X0469848Y0271014D01*
X0469988Y0270952D01*
X0470127Y0270887D01*
X0470264Y0270818D01*
X0470399Y0270745D01*
X0470532Y0270669D01*
X0470663Y0270589D01*
X0470792Y0270507D01*
X0470919Y0270420D01*
X0471044Y0270331D01*
X0471166Y0270238D01*
X0471285Y0270142D01*
X0471403Y0270043D01*
X0471517Y0269942D01*
X0471629Y0269837D01*
X0471738Y0269729D01*
X0471844Y0269618D01*
X0471948Y0269505D01*
X0472048Y0269389D01*
X0472146Y0269271D01*
X0472240Y0269150D01*
X0472331Y0269027D01*
X0472419Y0268901D01*
X0472503Y0268773D01*
X0472585Y0268643D01*
X0472662Y0268511D01*
X0472737Y0268377D01*
X0472808Y0268241D01*
X0472875Y0268103D01*
X0472939Y0267963D01*
X0472999Y0267822D01*
X0473055Y0267680D01*
X0473108Y0267536D01*
X0473157Y0267390D01*
X0473202Y0267244D01*
X0473243Y0267096D01*
X0473280Y0266948D01*
X0473314Y0266798D01*
X0473344Y0266647D01*
X0473369Y0266496D01*
X0473391Y0266345D01*
X0473409Y0266192D01*
X0473423Y0266040D01*
X0473433Y0265887D01*
X0473439Y0265733D01*
X0473441Y0265580D01*
X0473439Y0265427D01*
X0473433Y0265273D01*
X0473423Y0265120D01*
X0473409Y0264968D01*
X0473391Y0264815D01*
X0473369Y0264664D01*
X0473344Y0264513D01*
X0473314Y0264362D01*
X0473280Y0264212D01*
X0473243Y0264064D01*
X0473202Y0263916D01*
X0473157Y0263770D01*
X0473108Y0263624D01*
X0473055Y0263480D01*
X0472999Y0263338D01*
X0472939Y0263197D01*
X0472875Y0263057D01*
X0472808Y0262919D01*
X0472737Y0262783D01*
X0472662Y0262649D01*
X0472585Y0262517D01*
X0472503Y0262387D01*
X0472419Y0262259D01*
X0472331Y0262133D01*
X0472240Y0262010D01*
X0472146Y0261889D01*
X0472048Y0261771D01*
X0471948Y0261655D01*
X0471844Y0261542D01*
X0471738Y0261431D01*
X0471629Y0261323D01*
X0471517Y0261218D01*
X0471403Y0261117D01*
X0471285Y0261018D01*
X0471166Y0260922D01*
X0471044Y0260829D01*
X0470919Y0260740D01*
X0470792Y0260653D01*
X0470663Y0260571D01*
X0470532Y0260491D01*
X0470399Y0260415D01*
X0470264Y0260342D01*
X0470127Y0260273D01*
X0469988Y0260208D01*
X0469848Y0260146D01*
X0469706Y0260088D01*
X0469563Y0260033D01*
X0469418Y0259982D01*
X0469272Y0259935D01*
X0469125Y0259892D01*
X0468977Y0259853D01*
X0468828Y0259817D01*
X0468678Y0259786D01*
X0468527Y0259758D01*
X0468376Y0259734D01*
X0468223Y0259714D01*
X0468071Y0259698D01*
X0467918Y0259686D01*
X0467765Y0259678D01*
X0467612Y0259674D01*
X0467458Y0259674D01*
X0467305Y0259678D01*
X0467152Y0259686D01*
X0466999Y0259698D01*
X0466847Y0259714D01*
X0466694Y0259734D01*
X0466543Y0259758D01*
X0466392Y0259786D01*
X0466242Y0259817D01*
X0466093Y0259853D01*
X0465945Y0259892D01*
X0465798Y0259935D01*
X0465652Y0259982D01*
X0465507Y0260033D01*
X0465364Y0260088D01*
X0465222Y0260146D01*
X0465082Y0260208D01*
X0464943Y0260273D01*
X0464806Y0260342D01*
X0464671Y0260415D01*
X0464538Y0260491D01*
X0464407Y0260571D01*
X0464278Y0260653D01*
X0464151Y0260740D01*
X0464026Y0260829D01*
X0463904Y0260922D01*
X0463785Y0261018D01*
X0463667Y0261117D01*
X0463553Y0261218D01*
X0463441Y0261323D01*
X0463332Y0261431D01*
X0463226Y0261542D01*
X0463122Y0261655D01*
X0463022Y0261771D01*
X0462924Y0261889D01*
X0462830Y0262010D01*
X0462739Y0262133D01*
X0462651Y0262259D01*
X0462567Y0262387D01*
X0462485Y0262517D01*
X0462408Y0262649D01*
X0462333Y0262783D01*
X0462262Y0262919D01*
X0462195Y0263057D01*
X0462131Y0263197D01*
X0462071Y0263338D01*
X0462015Y0263480D01*
X0461962Y0263624D01*
X0461913Y0263770D01*
X0461868Y0263916D01*
X0461827Y0264064D01*
X0461790Y0264212D01*
X0461756Y0264362D01*
X0461726Y0264513D01*
X0461701Y0264664D01*
X0461679Y0264815D01*
X0461661Y0264968D01*
X0461647Y0265120D01*
X0461637Y0265273D01*
X0461631Y0265427D01*
X0461629Y0265580D01*
X0012811Y0265580D02*
X0012813Y0265733D01*
X0012819Y0265887D01*
X0012829Y0266040D01*
X0012843Y0266192D01*
X0012861Y0266345D01*
X0012883Y0266496D01*
X0012908Y0266647D01*
X0012938Y0266798D01*
X0012972Y0266948D01*
X0013009Y0267096D01*
X0013050Y0267244D01*
X0013095Y0267390D01*
X0013144Y0267536D01*
X0013197Y0267680D01*
X0013253Y0267822D01*
X0013313Y0267963D01*
X0013377Y0268103D01*
X0013444Y0268241D01*
X0013515Y0268377D01*
X0013590Y0268511D01*
X0013667Y0268643D01*
X0013749Y0268773D01*
X0013833Y0268901D01*
X0013921Y0269027D01*
X0014012Y0269150D01*
X0014106Y0269271D01*
X0014204Y0269389D01*
X0014304Y0269505D01*
X0014408Y0269618D01*
X0014514Y0269729D01*
X0014623Y0269837D01*
X0014735Y0269942D01*
X0014849Y0270043D01*
X0014967Y0270142D01*
X0015086Y0270238D01*
X0015208Y0270331D01*
X0015333Y0270420D01*
X0015460Y0270507D01*
X0015589Y0270589D01*
X0015720Y0270669D01*
X0015853Y0270745D01*
X0015988Y0270818D01*
X0016125Y0270887D01*
X0016264Y0270952D01*
X0016404Y0271014D01*
X0016546Y0271072D01*
X0016689Y0271127D01*
X0016834Y0271178D01*
X0016980Y0271225D01*
X0017127Y0271268D01*
X0017275Y0271307D01*
X0017424Y0271343D01*
X0017574Y0271374D01*
X0017725Y0271402D01*
X0017876Y0271426D01*
X0018029Y0271446D01*
X0018181Y0271462D01*
X0018334Y0271474D01*
X0018487Y0271482D01*
X0018640Y0271486D01*
X0018794Y0271486D01*
X0018947Y0271482D01*
X0019100Y0271474D01*
X0019253Y0271462D01*
X0019405Y0271446D01*
X0019558Y0271426D01*
X0019709Y0271402D01*
X0019860Y0271374D01*
X0020010Y0271343D01*
X0020159Y0271307D01*
X0020307Y0271268D01*
X0020454Y0271225D01*
X0020600Y0271178D01*
X0020745Y0271127D01*
X0020888Y0271072D01*
X0021030Y0271014D01*
X0021170Y0270952D01*
X0021309Y0270887D01*
X0021446Y0270818D01*
X0021581Y0270745D01*
X0021714Y0270669D01*
X0021845Y0270589D01*
X0021974Y0270507D01*
X0022101Y0270420D01*
X0022226Y0270331D01*
X0022348Y0270238D01*
X0022467Y0270142D01*
X0022585Y0270043D01*
X0022699Y0269942D01*
X0022811Y0269837D01*
X0022920Y0269729D01*
X0023026Y0269618D01*
X0023130Y0269505D01*
X0023230Y0269389D01*
X0023328Y0269271D01*
X0023422Y0269150D01*
X0023513Y0269027D01*
X0023601Y0268901D01*
X0023685Y0268773D01*
X0023767Y0268643D01*
X0023844Y0268511D01*
X0023919Y0268377D01*
X0023990Y0268241D01*
X0024057Y0268103D01*
X0024121Y0267963D01*
X0024181Y0267822D01*
X0024237Y0267680D01*
X0024290Y0267536D01*
X0024339Y0267390D01*
X0024384Y0267244D01*
X0024425Y0267096D01*
X0024462Y0266948D01*
X0024496Y0266798D01*
X0024526Y0266647D01*
X0024551Y0266496D01*
X0024573Y0266345D01*
X0024591Y0266192D01*
X0024605Y0266040D01*
X0024615Y0265887D01*
X0024621Y0265733D01*
X0024623Y0265580D01*
X0024621Y0265427D01*
X0024615Y0265273D01*
X0024605Y0265120D01*
X0024591Y0264968D01*
X0024573Y0264815D01*
X0024551Y0264664D01*
X0024526Y0264513D01*
X0024496Y0264362D01*
X0024462Y0264212D01*
X0024425Y0264064D01*
X0024384Y0263916D01*
X0024339Y0263770D01*
X0024290Y0263624D01*
X0024237Y0263480D01*
X0024181Y0263338D01*
X0024121Y0263197D01*
X0024057Y0263057D01*
X0023990Y0262919D01*
X0023919Y0262783D01*
X0023844Y0262649D01*
X0023767Y0262517D01*
X0023685Y0262387D01*
X0023601Y0262259D01*
X0023513Y0262133D01*
X0023422Y0262010D01*
X0023328Y0261889D01*
X0023230Y0261771D01*
X0023130Y0261655D01*
X0023026Y0261542D01*
X0022920Y0261431D01*
X0022811Y0261323D01*
X0022699Y0261218D01*
X0022585Y0261117D01*
X0022467Y0261018D01*
X0022348Y0260922D01*
X0022226Y0260829D01*
X0022101Y0260740D01*
X0021974Y0260653D01*
X0021845Y0260571D01*
X0021714Y0260491D01*
X0021581Y0260415D01*
X0021446Y0260342D01*
X0021309Y0260273D01*
X0021170Y0260208D01*
X0021030Y0260146D01*
X0020888Y0260088D01*
X0020745Y0260033D01*
X0020600Y0259982D01*
X0020454Y0259935D01*
X0020307Y0259892D01*
X0020159Y0259853D01*
X0020010Y0259817D01*
X0019860Y0259786D01*
X0019709Y0259758D01*
X0019558Y0259734D01*
X0019405Y0259714D01*
X0019253Y0259698D01*
X0019100Y0259686D01*
X0018947Y0259678D01*
X0018794Y0259674D01*
X0018640Y0259674D01*
X0018487Y0259678D01*
X0018334Y0259686D01*
X0018181Y0259698D01*
X0018029Y0259714D01*
X0017876Y0259734D01*
X0017725Y0259758D01*
X0017574Y0259786D01*
X0017424Y0259817D01*
X0017275Y0259853D01*
X0017127Y0259892D01*
X0016980Y0259935D01*
X0016834Y0259982D01*
X0016689Y0260033D01*
X0016546Y0260088D01*
X0016404Y0260146D01*
X0016264Y0260208D01*
X0016125Y0260273D01*
X0015988Y0260342D01*
X0015853Y0260415D01*
X0015720Y0260491D01*
X0015589Y0260571D01*
X0015460Y0260653D01*
X0015333Y0260740D01*
X0015208Y0260829D01*
X0015086Y0260922D01*
X0014967Y0261018D01*
X0014849Y0261117D01*
X0014735Y0261218D01*
X0014623Y0261323D01*
X0014514Y0261431D01*
X0014408Y0261542D01*
X0014304Y0261655D01*
X0014204Y0261771D01*
X0014106Y0261889D01*
X0014012Y0262010D01*
X0013921Y0262133D01*
X0013833Y0262259D01*
X0013749Y0262387D01*
X0013667Y0262517D01*
X0013590Y0262649D01*
X0013515Y0262783D01*
X0013444Y0262919D01*
X0013377Y0263057D01*
X0013313Y0263197D01*
X0013253Y0263338D01*
X0013197Y0263480D01*
X0013144Y0263624D01*
X0013095Y0263770D01*
X0013050Y0263916D01*
X0013009Y0264064D01*
X0012972Y0264212D01*
X0012938Y0264362D01*
X0012908Y0264513D01*
X0012883Y0264664D01*
X0012861Y0264815D01*
X0012843Y0264968D01*
X0012829Y0265120D01*
X0012819Y0265273D01*
X0012813Y0265427D01*
X0012811Y0265580D01*
M02*
