%
M48
M72
T01C0.01575
T02C0.04331
T03C0.05906
T04C0.09843
T05C0.11811
%
T01
X105016Y44733
X190232Y82706
X209583Y56190
X200213Y52587
X200213Y48257
X258480Y39202
X262417Y48257
X266748Y48650
X281315Y53769
X285252Y57312
X308874Y43532
X341157Y44713
X341157Y49438
X344957Y62017
X326197Y63217
X325016Y77784
X339189Y77784
X321472Y97076
X337043Y104930
X322437Y108198
X298244Y97469
X287614Y99438
X286039Y88414
X286039Y82509
X290764Y81721
X291551Y72666
X271571Y72942
X251000Y81741
X219878Y107371
X183874Y128119
X230862Y145816
X241846Y156800
X251000Y160068
X247949Y147036
X252220Y146426
X272358Y147036
X276630Y146426
X277240Y142154
X279681Y138493
X294937Y129202
X301039Y138493
X301039Y143375
X284189Y150087
X283953Y156800
X332102Y171879
X337614Y154556
X359268Y139595
X365173Y140776
X347417Y132391
X343756Y134831
X334386Y128847
X294307Y116761
X269307Y123237
X376098Y81741
X407220Y87843
X431020Y111643
X452378Y86013
X420291Y45894
X384858Y17548
X264780Y15186
X399898Y135442
X403736Y153532
X400213Y157706
X393185Y156190
X430921Y147469
X434701Y170855
X434681Y211721
X418717Y214398
X412811Y227391
X422260Y236839
X422476Y244064
X438953Y240402
X446886Y223926
X315685Y240402
X289976Y219517
X236039Y185658
X210724Y209280
X186039Y219910
X102614Y195245
X78146Y195245
X72654Y221485
X28559Y226209
X36433Y145107
T02
X52772Y59871
X60572Y59871
X60572Y50028
X52772Y50028
X218283Y46170
X228283Y46170
X238283Y46170
X248283Y46170
X248283Y36170
X238283Y36170
X228283Y36170
X218283Y36170
X272654Y33296
X272654Y23296
X272654Y43296
T03
X176197Y64792
X126984Y64792
X115173Y64792
X121079Y96288
X78362Y106524
X56709Y106524
X56709Y123060
X78362Y123060
X78362Y139595
X56709Y139595
X56709Y156131
X78362Y156131
X78362Y172666
X56709Y172666
X121079Y155343
X126984Y123847
X115173Y123847
X176197Y123847
X176197Y96288
X176197Y155343
X449661Y149280
X459661Y159280
X449661Y169280
X469661Y169280
X469661Y149280
X469661Y196524
X459661Y206524
X449661Y196524
X449661Y216524
X469661Y216524
T04
X42072Y78650
X42072Y31250
T05
X18717Y13611
X467535Y13611
X467535Y265580
X18717Y265580
M30
