G75*
%MOIN*%
%OFA0B0*%
%FSLAX25Y25*%
%IPPOS*%
%LPD*%
%AMOC8*
5,1,8,0,0,1.08239X$1,22.5*
%
%ADD10C,0.12598*%
%ADD11R,0.20787X0.07787*%
%ADD12R,0.05512X0.05906*%
%ADD13R,0.04331X0.03937*%
%ADD14R,0.06693X0.11417*%
%ADD15R,0.05906X0.05512*%
%ADD16R,0.43307X0.41772*%
%ADD17R,0.04987X0.09287*%
%ADD18R,0.02756X0.06693*%
%ADD19R,0.06693X0.02756*%
%ADD20R,0.07874X0.03150*%
%ADD21R,0.03150X0.07874*%
%ADD22C,0.07480*%
%ADD23C,0.14630*%
%ADD24R,0.22047X0.44094*%
%ADD25R,0.02756X0.03346*%
%ADD26R,0.06787X0.03787*%
%ADD27R,0.06693X0.04724*%
%ADD28R,0.06890X0.07795*%
%ADD29R,0.10236X0.10236*%
%ADD30R,0.06496X0.11024*%
%ADD31R,0.11811X0.15748*%
%ADD32R,0.02362X0.02756*%
%ADD33R,0.11024X0.06496*%
%ADD34R,0.04724X0.06299*%
%ADD35C,0.09646*%
%ADD36R,0.07087X0.16142*%
%ADD37R,0.03346X0.02756*%
%ADD38R,0.06693X0.06693*%
%ADD39C,0.03962*%
D10*
X0018717Y0013611D03*
X0467535Y0013611D03*
X0467535Y0265580D03*
X0018717Y0265580D03*
D11*
X0153260Y0041170D03*
X0191260Y0041170D03*
D12*
X0129016Y0041170D03*
X0121016Y0041170D03*
X0121016Y0017548D03*
X0129016Y0017548D03*
X0195819Y0178965D03*
X0203819Y0178965D03*
X0219441Y0178965D03*
X0227441Y0178965D03*
X0030591Y0190776D03*
X0022591Y0190776D03*
X0428102Y0045107D03*
X0436102Y0045107D03*
X0455661Y0243926D03*
X0463661Y0243926D03*
D13*
X0462661Y0234083D03*
X0456661Y0234083D03*
X0171323Y0178965D03*
X0165323Y0178965D03*
X0147701Y0178965D03*
X0141701Y0178965D03*
X0405480Y0045107D03*
X0411480Y0045107D03*
D14*
X0221472Y0196682D03*
X0201787Y0196682D03*
X0111236Y0196682D03*
X0091551Y0196682D03*
D15*
X0069898Y0194650D03*
X0069898Y0202650D03*
X0054150Y0202650D03*
X0054150Y0194650D03*
X0243126Y0132847D03*
X0243126Y0124847D03*
X0251000Y0171028D03*
X0251000Y0179028D03*
X0266748Y0179028D03*
X0266748Y0171028D03*
X0282496Y0171028D03*
X0282496Y0179028D03*
X0243126Y0073792D03*
X0243126Y0065792D03*
X0315567Y0049107D03*
X0315567Y0041107D03*
X0332890Y0041107D03*
X0332890Y0049107D03*
X0350213Y0049107D03*
X0350213Y0041107D03*
X0367535Y0041107D03*
X0367535Y0049107D03*
X0408480Y0025485D03*
X0408480Y0017485D03*
X0089583Y0017485D03*
X0089583Y0025485D03*
X0089583Y0041107D03*
X0089583Y0049107D03*
D16*
X0101394Y0249989D03*
X0211630Y0249989D03*
D17*
X0211630Y0217189D03*
X0204930Y0217189D03*
X0198230Y0217189D03*
X0218330Y0217189D03*
X0225030Y0217189D03*
X0114794Y0217189D03*
X0108094Y0217189D03*
X0101394Y0217189D03*
X0094694Y0217189D03*
X0087994Y0217189D03*
D18*
X0266748Y0111249D03*
X0269898Y0111249D03*
X0273047Y0111249D03*
X0276197Y0111249D03*
X0279346Y0111249D03*
X0282496Y0111249D03*
X0285646Y0111249D03*
X0288795Y0111249D03*
X0291945Y0111249D03*
X0295094Y0111249D03*
X0298244Y0111249D03*
X0298244Y0065580D03*
X0295094Y0065580D03*
X0291945Y0065580D03*
X0288795Y0065580D03*
X0285646Y0065580D03*
X0282496Y0065580D03*
X0279346Y0065580D03*
X0276197Y0065580D03*
X0273047Y0065580D03*
X0269898Y0065580D03*
X0266748Y0065580D03*
D19*
X0259661Y0072666D03*
X0259661Y0075816D03*
X0259661Y0078965D03*
X0259661Y0082115D03*
X0259661Y0085265D03*
X0259661Y0088414D03*
X0259661Y0091564D03*
X0259661Y0094713D03*
X0259661Y0097863D03*
X0259661Y0101013D03*
X0259661Y0104162D03*
X0305331Y0104162D03*
X0305331Y0101013D03*
X0305331Y0097863D03*
X0305331Y0094713D03*
X0305331Y0091564D03*
X0305331Y0088414D03*
X0305331Y0085265D03*
X0305331Y0082115D03*
X0305331Y0078965D03*
X0305331Y0075816D03*
X0305331Y0072666D03*
D20*
X0309661Y0169123D03*
X0309661Y0173060D03*
X0309661Y0176997D03*
X0309661Y0180934D03*
X0309661Y0184871D03*
X0309661Y0188808D03*
X0309661Y0192745D03*
X0309661Y0196682D03*
X0309661Y0200619D03*
X0309661Y0204556D03*
X0309661Y0208493D03*
X0309661Y0212430D03*
X0309661Y0216367D03*
X0309661Y0220304D03*
X0309661Y0224241D03*
X0309661Y0228178D03*
X0309661Y0232115D03*
X0309661Y0236052D03*
X0309661Y0239989D03*
X0309661Y0243926D03*
X0428559Y0243926D03*
X0428559Y0239989D03*
X0428559Y0236052D03*
X0428559Y0232115D03*
X0428559Y0228178D03*
X0428559Y0224241D03*
X0428559Y0220304D03*
X0428559Y0216367D03*
X0428559Y0212430D03*
X0428559Y0208493D03*
X0428559Y0204556D03*
X0428559Y0200619D03*
X0428559Y0196682D03*
X0428559Y0192745D03*
X0428559Y0188808D03*
X0428559Y0184871D03*
X0428559Y0180934D03*
X0428559Y0176997D03*
X0428559Y0173060D03*
X0428559Y0169123D03*
D21*
X0406512Y0147076D03*
X0402575Y0147076D03*
X0398638Y0147076D03*
X0394701Y0147076D03*
X0390764Y0147076D03*
X0386827Y0147076D03*
X0382890Y0147076D03*
X0378953Y0147076D03*
X0375016Y0147076D03*
X0371079Y0147076D03*
X0367142Y0147076D03*
X0363205Y0147076D03*
X0359268Y0147076D03*
X0355331Y0147076D03*
X0351394Y0147076D03*
X0347457Y0147076D03*
X0343520Y0147076D03*
X0339583Y0147076D03*
X0335646Y0147076D03*
X0331709Y0147076D03*
X0331709Y0265973D03*
X0335646Y0265973D03*
X0339583Y0265973D03*
X0343520Y0265973D03*
X0347457Y0265973D03*
X0351394Y0265973D03*
X0355331Y0265973D03*
X0359268Y0265973D03*
X0363205Y0265973D03*
X0367142Y0265973D03*
X0371079Y0265973D03*
X0375016Y0265973D03*
X0378953Y0265973D03*
X0382890Y0265973D03*
X0386827Y0265973D03*
X0390764Y0265973D03*
X0394701Y0265973D03*
X0398638Y0265973D03*
X0402575Y0265973D03*
X0406512Y0265973D03*
D22*
X0060572Y0059871D03*
X0052772Y0059871D03*
X0052772Y0050028D03*
X0060572Y0050028D03*
X0218283Y0046170D03*
X0228283Y0046170D03*
X0238283Y0046170D03*
X0248283Y0046170D03*
X0248283Y0036170D03*
X0238283Y0036170D03*
X0228283Y0036170D03*
X0218283Y0036170D03*
X0272654Y0033296D03*
X0272654Y0023296D03*
X0272654Y0043296D03*
D23*
X0042072Y0031250D03*
X0042072Y0078650D03*
D24*
X0141945Y0249831D03*
X0171079Y0249831D03*
X0252181Y0249831D03*
X0281315Y0249831D03*
D25*
X0427378Y0142253D03*
X0430528Y0142253D03*
X0433677Y0142253D03*
X0436827Y0142253D03*
X0436827Y0136938D03*
X0433677Y0136938D03*
X0430528Y0136938D03*
X0427378Y0136938D03*
X0073047Y0016269D03*
X0069898Y0016269D03*
X0066748Y0016269D03*
X0063598Y0016269D03*
X0063598Y0010954D03*
X0066748Y0010954D03*
X0069898Y0010954D03*
X0073047Y0010954D03*
D26*
X0426039Y0013985D03*
X0446039Y0013985D03*
X0446039Y0028985D03*
X0426039Y0028985D03*
D27*
X0452772Y0081524D03*
X0452772Y0091367D03*
X0452772Y0101209D03*
X0352378Y0101209D03*
X0352378Y0091367D03*
X0352378Y0081524D03*
D28*
X0225803Y0074792D03*
X0225803Y0064792D03*
X0189583Y0064792D03*
X0189583Y0074792D03*
X0189583Y0123847D03*
X0189583Y0133847D03*
X0225803Y0133847D03*
X0225803Y0123847D03*
D29*
X0035252Y0208099D03*
X0017929Y0208099D03*
D30*
X0194130Y0155343D03*
X0213382Y0155343D03*
X0213382Y0096288D03*
X0194130Y0096288D03*
D31*
X0171079Y0206524D03*
X0141945Y0206524D03*
X0252181Y0206524D03*
X0281315Y0206524D03*
D32*
X0459661Y0052981D03*
X0462220Y0052981D03*
X0464780Y0052981D03*
X0464780Y0045501D03*
X0462220Y0045501D03*
X0459661Y0045501D03*
D33*
X0089583Y0063040D03*
X0089583Y0082292D03*
D34*
X0227575Y0091957D03*
X0235055Y0091957D03*
X0231315Y0100619D03*
X0235055Y0151013D03*
X0227575Y0151013D03*
X0231315Y0159674D03*
X0326000Y0119517D03*
X0333480Y0119517D03*
X0329740Y0128178D03*
X0329740Y0104556D03*
X0326000Y0095894D03*
X0333480Y0095894D03*
X0329740Y0080934D03*
X0326000Y0072272D03*
X0333480Y0072272D03*
D35*
X0449661Y0149280D03*
X0459661Y0159280D03*
X0449661Y0169280D03*
X0469661Y0169280D03*
X0469661Y0149280D03*
X0469661Y0196524D03*
X0459661Y0206524D03*
X0449661Y0196524D03*
X0449661Y0216524D03*
X0469661Y0216524D03*
X0176197Y0155343D03*
X0176197Y0123847D03*
X0126984Y0123847D03*
X0115173Y0123847D03*
X0078362Y0123060D03*
X0056709Y0123060D03*
X0056709Y0139595D03*
X0078362Y0139595D03*
X0078362Y0156131D03*
X0056709Y0156131D03*
X0056709Y0172666D03*
X0078362Y0172666D03*
X0121079Y0155343D03*
X0078362Y0106524D03*
X0056709Y0106524D03*
X0121079Y0096288D03*
X0126984Y0064792D03*
X0115173Y0064792D03*
X0176197Y0064792D03*
X0176197Y0096288D03*
D36*
X0052181Y0229950D03*
X0052181Y0263414D03*
D37*
X0260154Y0144320D03*
X0260154Y0141170D03*
X0260154Y0138020D03*
X0260154Y0134871D03*
X0265469Y0134871D03*
X0265469Y0138020D03*
X0265469Y0141170D03*
X0265469Y0144320D03*
X0291650Y0144320D03*
X0291650Y0141170D03*
X0291650Y0138020D03*
X0291650Y0134871D03*
X0296965Y0134871D03*
X0296965Y0138020D03*
X0296965Y0141170D03*
X0296965Y0144320D03*
D38*
X0314976Y0017548D03*
X0328756Y0017548D03*
X0354346Y0017548D03*
X0368126Y0017548D03*
D39*
X0384858Y0017548D03*
X0420291Y0045894D03*
X0376098Y0081741D03*
X0407220Y0087843D03*
X0431020Y0111643D03*
X0452378Y0086013D03*
X0399898Y0135442D03*
X0403736Y0153532D03*
X0400213Y0157706D03*
X0393185Y0156190D03*
X0365173Y0140776D03*
X0359268Y0139595D03*
X0347417Y0132391D03*
X0343756Y0134831D03*
X0334386Y0128847D03*
X0301039Y0138493D03*
X0301039Y0143375D03*
X0284189Y0150087D03*
X0276630Y0146426D03*
X0272358Y0147036D03*
X0277240Y0142154D03*
X0279681Y0138493D03*
X0294937Y0129202D03*
X0294307Y0116761D03*
X0269307Y0123237D03*
X0252220Y0146426D03*
X0247949Y0147036D03*
X0241846Y0156800D03*
X0251000Y0160068D03*
X0230862Y0145816D03*
X0183874Y0128119D03*
X0219878Y0107371D03*
X0190232Y0082706D03*
X0209583Y0056190D03*
X0200213Y0052587D03*
X0200213Y0048257D03*
X0258480Y0039202D03*
X0262417Y0048257D03*
X0266748Y0048650D03*
X0281315Y0053769D03*
X0285252Y0057312D03*
X0308874Y0043532D03*
X0341157Y0044713D03*
X0341157Y0049438D03*
X0344957Y0062017D03*
X0326197Y0063217D03*
X0325016Y0077784D03*
X0339189Y0077784D03*
X0321472Y0097076D03*
X0337043Y0104930D03*
X0322437Y0108198D03*
X0298244Y0097469D03*
X0287614Y0099438D03*
X0286039Y0088414D03*
X0286039Y0082509D03*
X0290764Y0081721D03*
X0291551Y0072666D03*
X0271571Y0072942D03*
X0251000Y0081741D03*
X0264780Y0015186D03*
X0105016Y0044733D03*
X0036433Y0145107D03*
X0078146Y0195245D03*
X0102614Y0195245D03*
X0072654Y0221485D03*
X0028559Y0226209D03*
X0186039Y0219910D03*
X0210724Y0209280D03*
X0236039Y0185658D03*
X0283953Y0156800D03*
X0332102Y0171879D03*
X0337614Y0154556D03*
X0430921Y0147469D03*
X0434701Y0170855D03*
X0434681Y0211721D03*
X0418717Y0214398D03*
X0412811Y0227391D03*
X0422260Y0236839D03*
X0422476Y0244064D03*
X0438953Y0240402D03*
X0446886Y0223926D03*
X0315685Y0240402D03*
X0289976Y0219517D03*
M02*
